<?xml version="1.0" encoding="UTF-8"?>
<svg width="50px" height="50px" viewBox="0 0 50 50" version="1.1" xmlns="http://www.w3.org/2000/svg" xmlns:xlink="http://www.w3.org/1999/xlink">
    <title>logo</title>
    <g id="logo" stroke="none" stroke-width="1" fill="none" fill-rule="evenodd">
        <circle id="BG" fill="#CE4242" cx="25" cy="25" r="24"></circle>
        <path d="M17.8176944,33 C19.9571046,33 21.7868633,32.6398305 23.3069705,31.9194915 C24.8270777,31.1991525 25.9892761,30.1866761 26.7935657,28.8820621 C27.5978552,27.5774482 28,26.0527307 28,24.3079096 C28,21.6346516 27.1836461,19.5816855 25.5509383,18.1490113 C23.9182306,16.7163371 21.4128686,16 18.0348525,16 C17.536193,16 16.9128686,16.0080038 16.1648794,16.0240113 C15.4168901,16.0400188 14.7453083,16.0560264 14.150134,16.0720339 C13.3780161,16.0880414 12.6099196,16.0840395 11.8458445,16.0600282 C11.0817694,16.0360169 10.4664879,16.0160075 10,16 L10,16 L10,16.480226 C10.4825737,16.4962335 10.8485255,16.5562618 11.0978552,16.6603107 C11.347185,16.7643597 11.5120643,16.9564501 11.5924933,17.2365819 C11.6729223,17.5167137 11.7131367,17.952919 11.7131367,18.5451977 L11.7131367,18.5451977 L11.7131367,30.4548023 C11.7131367,31.0310734 11.6729223,31.4632768 11.5924933,31.7514124 C11.5120643,32.039548 11.3512064,32.2316384 11.1099196,32.3276836 C10.8686327,32.4237288 10.4986595,32.4877589 10,32.519774 L10,32.519774 L10,33 C10.4664879,32.9679849 11.0817694,32.9479755 11.8458445,32.9399718 C12.6099196,32.931968 13.3941019,32.9279661 14.1983914,32.9279661 C14.7613941,32.9279661 15.4088472,32.9399718 16.1407507,32.9639831 C16.8726542,32.9879944 17.4316354,33 17.8176944,33 Z M18.4209115,32.5677966 C17.6809651,32.5677966 17.19437,32.4317326 16.961126,32.1596045 C16.727882,31.8874765 16.6112601,31.3352166 16.6112601,30.5028249 L16.6112601,30.5028249 L16.6112601,18.4971751 C16.6112601,17.6647834 16.7238606,17.1125235 16.9490617,16.8403955 C17.1742627,16.5682674 17.6568365,16.4322034 18.3967828,16.4322034 C19.9731903,16.4322034 21.1233244,17.0885122 21.847185,18.4011299 C22.5710456,19.7137476 22.9329759,21.7146893 22.9329759,24.4039548 C22.9329759,26.1487759 22.7841823,27.6294727 22.4865952,28.8460452 C22.189008,30.0626177 21.7104558,30.9870527 21.0509383,31.6193503 C20.3914209,32.2516478 19.5147453,32.5677966 18.4209115,32.5677966 Z" id="D" fill="#FFFFFF" fill-rule="nonzero"></path>
        <path d="M40,29 L40,28.6508951 C39.6514896,28.6508951 39.4069702,28.5677749 39.2664418,28.4015345 C39.1259134,28.2352941 39.0556492,27.9194373 39.0556492,27.4539642 L39.0556492,27.4539642 L39.0556492,22.9488491 C39.0556492,22.3836317 39.0163013,21.9347826 38.9376054,21.6023018 C38.8589095,21.269821 38.7352445,21.0038363 38.5666105,20.8043478 C38.4092187,20.615942 38.1815627,20.4580136 37.8836425,20.3305627 C37.5857223,20.2031117 37.17819,20.1393862 36.6610455,20.1393862 C36.0539629,20.1393862 35.5227656,20.2363598 35.0674536,20.4303069 C34.6121417,20.624254 34.2495784,20.9428815 33.9797639,21.3861893 L33.9797639,21.3861893 L33.9797639,16 C33.5637999,16.0775789 33.1112985,16.135763 32.6222597,16.1745524 C32.1332209,16.2133419 31.6076447,16.2327366 31.0455312,16.2327366 C30.7082631,16.2327366 30.3597527,16.2161125 30,16.1828645 L30,16.1828645 L30,16.5319693 C30.3597527,16.5319693 30.6070826,16.6511083 30.7419899,16.8893862 C30.8768971,17.1276641 30.9443508,17.4961637 30.9443508,17.9948849 L30.9443508,17.9948849 L30.9443508,27.4539642 C30.9443508,27.9194373 30.8740866,28.2352941 30.7335582,28.4015345 C30.5930298,28.5677749 30.3485104,28.6508951 30,28.6508951 L30,28.6508951 L30,29 C30.24733,28.9889173 30.6127038,28.9750639 31.0961214,28.9584399 C31.5795391,28.9418159 32.0573356,28.9335038 32.529511,28.9335038 C32.9679595,28.9335038 33.3951658,28.9418159 33.8111298,28.9584399 C34.2270939,28.9750639 34.5418775,28.9889173 34.7554806,29 L34.7554806,29 L34.7554806,28.6508951 C34.4744238,28.6508951 34.2748735,28.5677749 34.1568297,28.4015345 C34.0387858,28.2352941 33.9797639,27.9194373 33.9797639,27.4539642 L33.9797639,27.4539642 L33.9797639,22.2007673 C33.9797639,21.8461211 34.1034289,21.557971 34.3507589,21.3363171 C34.5980888,21.1146633 34.8791456,21.0038363 35.1939292,21.0038363 C35.3962901,21.0038363 35.5564924,21.0426257 35.6745363,21.1202046 C35.7925801,21.1977835 35.8797077,21.3141517 35.9359191,21.4693095 C35.9921304,21.6244672 36.0202361,21.8184143 36.0202361,22.0511509 L36.0202361,22.0511509 L36.0202361,27.4539642 C36.0202361,27.9194373 35.9640247,28.2352941 35.851602,28.4015345 C35.7391793,28.5677749 35.5368184,28.6508951 35.2445194,28.6508951 L35.2445194,28.6508951 L35.2445194,29 C35.4693648,28.9889173 35.8066329,28.9750639 36.2563238,28.9584399 C36.7060146,28.9418159 37.1669477,28.9335038 37.6391231,28.9335038 C38.0775717,28.9335038 38.5244519,28.9418159 38.9797639,28.9584399 C39.4350759,28.9750639 39.7751546,28.9889173 40,29 L40,29 Z" id="h" fill="#FFFFFF" fill-rule="nonzero"></path>
        <rect id="Rectangle" fill="#FFFFFF" x="30" y="31" width="10" height="2"></rect>
    </g>
</svg>