<?xml version="1.0" encoding="UTF-8"?>
<svg width="835px" height="300px" viewBox="0 0 835 300" version="1.1" xmlns="http://www.w3.org/2000/svg" xmlns:xlink="http://www.w3.org/1999/xlink">
    <title>dhfc_header_img_sm</title>
    <g id="dhfc_header_img_sm" stroke="none" stroke-width="1" fill="none" fill-rule="evenodd">
        <g id="dhfc_seal_3" transform="translate(0.000000, 40.000000)" fill-rule="nonzero">
            <g id="Outer_Blue_Ring" fill="#03A9F4">
                <path d="M130,0 C58.2123894,0 0,58.2123894 0,130 C0,201.787611 58.2123894,260 130,260 C201.787611,260 260,201.787611 260,130 C260,58.2123894 201.787611,0 130,0 Z M130,250.79646 C63.2858407,250.79646 9.20353982,196.725664 9.20353982,130 C9.20353982,63.2743363 63.2858407,9.20353982 130,9.20353982 C196.714159,9.20353982 250.79646,63.2858407 250.79646,130 C250.79646,196.714159 196.725664,250.79646 130,250.79646 Z" id="Shape"></path>
            </g>
            <g id="Inner_Blue_Ring" transform="translate(13.000000, 13.000000)" fill="#03A9F4">
                <path d="M117.5,0 C52.6054412,0 0,52.6054412 0,117.5 C0,182.394559 52.6054412,235 117.5,235 C182.394559,235 235,182.394559 235,117.5 C235,52.6054412 182.394559,0 117.5,0 Z M117.5,202.053922 C70.8018137,202.053922 32.9460784,164.198186 32.9460784,117.5 C32.9460784,70.8018137 70.8018137,32.9460784 117.5,32.9460784 C164.198186,32.9460784 202.053922,70.8018137 202.053922,117.5 C202.053922,164.198186 164.198186,202.053922 117.5,202.053922 Z" id="Shape"></path>
            </g>
            <g id="Dashiel_Hermann_Fan_Club" transform="translate(25.000000, 21.000000)" fill="#FFFFFF">
                <path d="M14.6179694,80.3980403 C14.1187113,79.6149913 13.4754689,78.9333011 12.7221943,78.3889513 C11.9636404,77.8356926 11.1022751,77.4387213 10.1883515,77.221197 C9.26869551,76.999085 8.31344608,76.9654584 7.38039301,77.1223517 C6.46300542,77.2707742 5.5821164,77.5913567 4.7843559,78.0671292 C3.98656477,78.5438732 3.28375492,79.1634044 2.71121179,79.8946186 C2.12149739,80.6468638 1.70329218,81.5184144 1.48575328,82.4485064 L0.188886463,87.8505191 L14.2609279,91.2181568 L15.5600983,85.8161441 C15.7915577,84.8833003 15.8159291,83.9112468 15.6315066,82.9680191 C15.4560807,82.0561089 15.112403,81.1846615 14.6179694,80.3980403 L14.6179694,80.3980403 Z M12.2476747,85.9885487 L12.0472707,86.825286 L4.17162664,84.9403284 L4.37203057,84.1035911 C4.49822021,83.528399 4.73272418,82.9823549 5.0630786,82.4944809 C5.65316621,81.6310967 6.58911924,81.0651528 7.62917031,80.942839 C8.17470659,80.8728492 8.72853181,80.9048095 9.26234716,81.0370869 C9.80185976,81.1603163 10.3145816,81.3799335 10.7757424,81.6853284 C11.199317,81.9670453 11.5581269,82.3352988 11.8284389,82.7657309 C12.1018194,83.20836 12.2791644,83.7032725 12.3490284,84.2185275 C12.4279352,84.8096136 12.3935402,85.4102802 12.2476747,85.9885487 L12.2476747,85.9885487 Z" id="Shape"></path>
                <path d="M7.89637555,63.4702013 L18.6582969,74.5914513 L20.3651856,70.9686547 L18.457893,69.1296716 L20.731441,64.2678602 L23.373548,64.5552013 L25.0827402,60.9324047 L9.64933406,59.760053 L7.89637555,63.4702013 Z M17.7207751,63.9529343 L16.2833952,67.0033475 L12.6438755,63.4449153 L17.7207751,63.9529343 Z" id="Shape"></path>
                <path d="M32.0323799,46.841197 C31.6702904,46.2547423 31.1940668,45.7466748 30.6318559,45.3470233 C29.7473144,44.6957168 28.8604694,44.3961158 27.971321,44.4482203 C27.0821725,44.5003249 26.1085626,44.8987712 25.0504913,45.6435593 C24.7855895,45.8297564 24.5229913,46.0228496 24.265,46.2205403 C24.0283068,46.406605 23.7754566,46.5712331 23.5094541,46.7124682 C23.2908949,46.8322332 23.0518373,46.910195 22.8045852,46.9423411 C22.5721525,46.9653623 22.3398989,46.8969026 22.1573035,46.7515466 C21.8619691,46.5462814 21.6890648,46.2072271 21.6966048,45.8481462 C21.7083227,45.4248398 21.8588301,45.0170493 22.1250546,44.6872881 C22.3712377,44.3626878 22.6758949,44.0867248 23.023417,43.8735381 C23.4341127,43.6237808 23.8808287,43.4384864 24.3479258,43.3241419 L22.8713865,40.3840678 C22.1428126,40.727858 21.4596341,41.1602347 20.8374017,41.6713559 C20.2464378,42.1456303 19.7178307,42.6924528 19.2641157,43.2988559 C18.8356368,43.8628843 18.5118732,44.4989511 18.3081659,45.1769174 C18.1271666,45.7721579 18.0745675,46.3989079 18.1538319,47.0159004 C18.2379998,47.6155112 18.4466959,48.1909789 18.7665611,48.7054661 C19.1217997,49.2678911 19.5834156,49.7558795 20.1256223,50.1421716 C20.603229,50.5207145 21.1596906,50.7877662 21.7541921,50.9237394 C22.2361694,51.0204393 22.733276,51.0133861 23.2123035,50.9030508 C23.6847859,50.7861761 24.1357214,50.5953129 24.5483297,50.3375636 C24.9752438,50.0724435 25.3944796,49.7896999 25.8060371,49.4893326 C26.1607751,49.2433686 26.4717467,49.0295869 26.7274345,48.875572 C26.9503675,48.7315242 27.1912002,48.6171528 27.443821,48.5353602 C27.6314419,48.4731056 27.8312661,48.4565537 28.0266048,48.4870869 C28.2218551,48.5274898 28.4053695,48.6115903 28.5633188,48.7330508 C28.8550296,48.9538589 29.0385343,49.288334 29.0677838,49.6525424 C29.1161572,50.0594174 28.9595197,50.5122669 28.5932642,51.0041949 C28.2558962,51.4540867 27.82636,51.8270965 27.3332533,52.0983898 C26.7438885,52.4241696 26.107478,52.6568049 25.4466921,52.7880085 L26.9301419,55.8797987 C28.6660526,55.3170816 30.1814371,54.225303 31.2630131,52.758125 C31.7495386,52.1190058 32.1277245,51.4045791 32.3825109,50.6432945 C32.5992816,49.9969831 32.6823485,49.3134903 32.6266812,48.6342055 C32.5680327,47.9991619 32.3647595,47.3858861 32.0323799,46.841197 L32.0323799,46.841197 Z" id="Path"></path>
                <polygon id="Path" points="41.331583 32.5270127 45.3488755 36.9336758 48.1314956 34.4050742 38.3900218 23.7251801 35.6074017 26.2537818 39.3667031 30.3754025 35.3494105 34.0234852 31.5901092 29.9018644 28.8097926 32.4281674 38.5512664 43.1080614 41.3338865 40.5817585 37.3142904 36.1773941"></polygon>
                <polygon id="Rectangle" transform="translate(51.815296, 23.199419) rotate(-32.660000) translate(-51.815296, -23.199419) " points="49.9288264 15.9718362 53.6881653 15.9753712 53.7017662 30.4270025 49.9424273 30.4234675"></polygon>
                <polygon id="Path" points="71.1871616 21.2264619 69.8672598 18.3323623 65.7969869 20.1805403 64.7627183 17.9139936 68.6072489 16.1692585 67.2873472 13.2751589 63.4451201 15.0198941 62.4431004 12.8246081 66.5133734 10.9764301 65.1934716 8.08233051 57.6979039 11.4844492 63.6915939 24.6308792"></polygon>
                <polygon id="Path" points="84.9090721 13.6866314 80.5554694 14.868178 77.5977838 3.99748941 73.9674782 4.98364407 77.7613319 18.9208369 85.7452402 16.7554343"></polygon>
                <polygon id="Path" points="112.198559 6.07783898 106.769225 5.86865466 106.985753 0.298834746 103.226452 0.154014831 102.666703 14.5854343 106.426004 14.7302542 106.656354 8.77654661 112.085688 8.98802966 111.853035 14.9394386 115.612336 15.0842585 116.174389 0.652838983 112.415087 0.508019068"></polygon>
                <polygon id="Path" points="131.471889 15.0497775 127.115983 14.0360381 127.682642 11.6108792 131.794378 12.5694492 132.519978 9.47306144 128.408242 8.51449153 128.956474 6.16519068 133.31238 7.17893008 134.035677 4.08254237 126.017216 2.21367585 122.727828 16.2795975 130.746288 18.1461653"></polygon>
                <path d="M143.010087,16.6244068 L144.090426,23.1436017 L148.386441,25.0032733 L146.571288,17.766875 C147.620146,17.9553708 148.523883,17.8419668 149.2825,17.4266631 C150.041117,17.0113595 150.640025,16.2995198 151.079225,15.2911441 C151.316742,14.7530382 151.456362,14.1770311 151.49155,13.5900847 C151.568643,12.4178592 151.120621,11.2719127 150.268395,10.4615148 C149.74703,9.96585841 149.137738,9.57141675 148.47167,9.29835805 L143.099924,6.97664195 L137.34119,20.2265148 L140.79643,21.7206886 L143.010087,16.6244068 Z M145.39881,11.1235487 L146.050699,11.4039936 C146.732533,11.6982309 147.193231,12.0652613 147.432795,12.5050847 C147.649684,12.9639437 147.658838,13.4936197 147.457933,13.9596693 C147.257029,14.4257189 146.865382,14.7833315 146.382402,14.9417373 C145.896365,15.0658686 145.311277,14.9785169 144.631747,14.6842797 L143.979858,14.4038347 L145.39881,11.1235487 Z" id="Shape"></path>
                <polygon id="Path" points="160.703221 33.0281356 168.392282 28.3502225 164.462522 35.7866102 167.477795 37.9979873 174.072697 24.9113242 171.071245 22.7091419 164.181496 27.210053 166.418188 19.2932309 163.419039 17.0933475 152.864432 27.2744174 155.879705 29.4880932 161.820415 23.5274894 159.498493 32.143125"></polygon>
                <path d="M185.661572,36.4279555 L171.062031,41.5817055 L173.658068,44.6321186 L176.134323,43.6666525 L179.610295,47.7560911 L178.253537,50.0364301 L180.854181,53.1006356 L188.32441,39.5634216 L185.661572,36.4279555 Z M181.146725,45.1493326 L178.96071,42.5793538 L183.726638,40.7541631 L181.146725,45.1493326 Z" id="Shape"></path>
                <polygon id="Path" points="201.827489 60.6427648 193.988701 64.7368008 198.607205 54.4982627 196.861157 51.1720021 184.039913 57.8704979 185.783657 61.1944597 193.624749 57.1004237 189.006245 67.3389619 190.743079 70.6468326 203.564323 63.9506356"></polygon>
                <polygon id="Path" points="209.933483 84.0783051 201.357576 86.2460064 208.228897 77.356822 207.3075 73.7179343 193.276921 77.2602754 194.200622 80.9014619 202.776528 78.7337606 195.905207 87.6229449 196.824301 91.2434428 210.852576 87.698803"></polygon>
                <polygon id="Path" points="160.31393 184.259206 163.688548 188.819883 160.369214 191.265731 162.262686 193.824216 165.58202 191.37607 167.017096 193.318496 163.375273 196.003411 165.266441 198.561896 171.937358 193.644915 163.338417 182.029439"></polygon>
                <path d="M150.187773,190.828972 L150.547118,193.456419 L145.748941,195.870085 L143.843952,194.012712 L140.259716,195.814915 L151.691954,206.237352 L155.361419,204.398369 L153.767402,189.026769 L150.187773,190.828972 Z M147.925742,197.971123 L150.943319,196.453962 L151.602118,201.511165 L147.925742,197.971123 Z" id="Shape"></path>
                <polygon id="Path" points="132.098439 198.423972 134.319007 206.972945 125.372238 200.16411 121.748843 201.101992 125.381452 215.080561 129.002544 214.144979 126.784279 205.596006 135.728745 212.404841 139.370568 211.462362 135.740262 197.481494"></polygon>
                <path d="M103.802325,204.028273 C102.464157,202.574755 100.608463,201.702469 98.633286,201.598517 C98.1377299,201.574797 97.6410365,201.597887 97.1498362,201.667479 C96.5970549,201.748405 96.0511322,201.87058 95.5166594,202.032977 L95.1250655,202.147913 L94.8947162,206.586758 C95.9067176,205.61363 97.0131623,205.158482 98.2140502,205.221314 C99.2542881,205.269237 100.231078,205.734242 100.922959,206.5109 C101.259677,206.89218 101.517963,207.335825 101.683111,207.816578 C101.859514,208.333752 101.932303,208.880491 101.897336,209.425689 C101.875166,209.963438 101.746785,210.491523 101.519563,210.979629 C101.309129,211.437368 101.010084,211.849072 100.639629,212.191059 C100.268982,212.529407 99.8343278,212.790441 99.36119,212.958835 C98.8561943,213.141073 98.319423,213.219272 97.7832969,213.188708 C96.5056259,213.121278 95.4598399,212.536635 94.6459389,211.434778 L94.4155895,215.910403 C94.9697251,216.180247 95.5471832,216.399519 96.1409061,216.56554 C96.6917265,216.714999 97.2570018,216.805164 97.8270633,216.834492 C100.848554,217.001024 103.681246,215.363249 105.039301,212.664597 C105.974742,210.75144 106.085432,208.539733 105.345666,206.543083 C104.993885,205.615607 104.470325,204.762488 103.802325,204.028273 Z" id="Path"></path>
                <polygon id="Path" points="80.7650873 202.308824 85.1762773 203.253602 82.8059825 214.264513 86.4846616 215.052977 89.5229694 200.931886 81.4354039 199.198644"></polygon>
                <path d="M70.9637227,195.141388 C68.9827183,194.34143 67.3203639,194.22726 65.9766594,194.798877 C64.6329549,195.370494 63.5380277,196.698393 62.6918777,198.782574 L59.5406987,206.538485 L63.0097598,207.943008 L65.9651419,200.665233 C66.1187082,200.274449 66.2960771,199.8806 66.4972489,199.483686 C66.6767954,199.11016 66.9226269,198.772159 67.2228493,198.486038 C67.5107027,198.218107 67.8683373,198.036473 68.2548144,197.961928 C68.7566484,197.895986 69.2668932,197.975796 69.7244432,198.191801 C70.2064943,198.355165 70.6316905,198.652665 70.9499017,199.049227 C71.1794382,199.36852 71.3092671,199.748404 71.3230677,200.141123 C71.3343181,200.554159 71.2719214,200.965904 71.1387882,201.35715 C71.0036499,201.777052 70.8562263,202.182394 70.6965175,202.573178 L67.7411354,209.850953 L71.2286245,211.262373 L74.3798035,203.504163 C75.2244178,201.421515 75.3610917,199.706663 74.7898253,198.359608 C74.218559,197.012553 72.9431914,195.939813 70.9637227,195.141388 Z" id="Path"></path>
                <path d="M52.5380786,185.967161 C51.9731656,185.78753 51.3769608,185.72725 50.7874236,185.790159 C50.2312885,185.857919 49.6979529,186.051315 49.2279585,186.355646 C48.7122116,186.698071 48.2755841,187.146334 47.9472162,187.670519 C47.7191328,188.016352 47.5371617,188.39036 47.4058952,188.783104 C47.2827308,189.153027 47.2357207,189.543968 47.2676856,189.932468 C47.303881,190.33525 47.4222493,190.726387 47.6155131,191.081833 C47.849311,191.510585 48.1511354,191.898729 48.5092686,192.231197 C47.9298889,192.205366 47.3539061,192.332217 46.8392358,192.598994 C46.2964317,192.915769 45.8424622,193.364056 45.5193341,193.902373 C44.8651419,194.895424 44.6524527,195.851695 44.8812664,196.771186 C45.1100801,197.690678 45.783468,198.508259 46.9014301,199.22393 L51.5982533,202.274343 L59.4900218,190.166939 L54.4223362,186.877458 C53.8410039,186.485839 53.2064802,186.179297 52.5380786,185.967161 L52.5380786,185.967161 Z M50.0157533,197.810212 L49.4352729,197.435519 C48.4493777,196.79494 48.2105822,196.083867 48.7188865,195.302299 C49.2271907,194.520731 49.9758261,194.450237 50.9647926,195.090816 L51.5429694,195.467807 L50.0157533,197.810212 Z M53.0724891,193.123104 L52.381441,192.674852 C51.5890393,192.157638 51.0868777,191.688697 50.8749563,191.261133 C50.697745,190.829354 50.7442973,190.338262 50.999499,189.947304 C51.2547007,189.556345 51.6860114,189.31537 52.1533952,189.302617 C52.6279148,189.321006 53.263679,189.589958 54.0560808,190.104873 L54.7471288,190.564619 L53.0724891,193.123104 Z" id="Shape"></path>
            </g>
            <g id="Stars" transform="translate(20.000000, 120.000000)" fill="#FFFFFF">
                <polygon id="Path" points="6.43643979 12.165625 8.14115183 18.4782609 9.84816754 12.165625 16.2039791 13.8586957 11.5528796 9.23913043 16.2039791 4.61956522 9.84816754 6.31263587 8.14115183 0 6.43643979 6.31263587 0.0783246073 4.61956522 4.72942408 9.23913043 0.0783246073 13.8586957"></polygon>
                <polygon id="Path" points="219.847958 4.61956522 213.492147 6.31263587 211.785131 0 210.080419 6.31263587 203.722304 4.61956522 208.373403 9.23913043 203.722304 13.8586957 210.080419 12.165625 211.785131 18.4782609 213.492147 12.165625 219.847958 13.8586957 215.196859 9.23913043"></polygon>
                <polygon id="Path" points="18.507644 37.6494565 13.8565445 33.0298913 18.507644 28.4103261 12.1518325 30.1033967 10.4448168 23.7907609 8.74010471 30.1033967 2.38198953 28.4103261 7.03308901 33.0298913 2.38198953 37.6494565 8.74010471 35.9563859 10.4448168 42.2690217 12.1518325 35.9563859"></polygon>
                <polygon id="Path" points="211.188482 30.1033967 209.481466 23.7907609 207.776754 30.1033967 201.418639 28.4103261 206.069738 33.0298913 201.418639 37.6494565 207.776754 35.9563859 209.481466 42.2690217 211.188482 35.9563859 217.544293 37.6494565 212.893194 33.0298913 217.544293 28.4103261"></polygon>
                <polygon id="Path" points="23.0712042 55.6657609 27.7223037 51.0461957 21.3664921 52.7392663 19.6594764 46.4266304 17.9547644 52.7392663 11.5966492 51.0461957 16.2477487 55.6657609 11.5966492 60.2853261 17.9547644 58.5922554 19.6594764 64.9048913 21.3664921 58.5922554 27.7223037 60.2853261"></polygon>
                <polygon id="Path" points="201.973822 52.7392663 200.266806 46.4266304 198.562094 52.7392663 192.203979 51.0461957 196.855079 55.6657609 192.203979 60.2853261 198.562094 58.5922554 200.266806 64.9048913 201.973822 58.5922554 208.329634 60.2853261 203.678534 55.6657609 208.329634 51.0461957"></polygon>
                <polygon id="Path" points="35.1884817 72.834375 33.481466 66.5217391 31.7767539 72.834375 25.4186387 71.1413043 30.0697382 75.7608696 25.4186387 80.3804348 31.7767539 78.6873641 33.481466 85 35.1884817 78.6873641 41.5442932 80.3804348 36.8931937 75.7608696 41.5442932 71.1413043"></polygon>
                <polygon id="Path" points="188.382199 72.834375 186.675183 66.5217391 184.970471 72.834375 178.612356 71.1413043 183.263455 75.7608696 178.612356 80.3804348 184.970471 78.6873641 186.675183 85 188.382199 78.6873641 194.73801 80.3804348 190.086911 75.7608696 194.73801 71.1413043"></polygon>
            </g>
            <g id="Pennant" transform="translate(73.000000, 91.000000)" fill="#03A9F4">
                <path d="M57.8315,13.6477821 C50.17127,8.76101733 23.5064476,10.4812803 10.8789773,13.1530162 L10.8559274,13.0274218 C17.1639001,10.1121088 13.5220255,-0.913559137 6.21522646,0.0607491138 C1.22109461,0.726780145 -3.43113129,10.6144865 3.52607854,13.1415986 C5.85411232,30.1387105 16.0493947,117.991567 16.6563738,119.312211 C17.3786021,120.903074 22.9566632,121.302692 23.1871616,119.026769 C23.41766,116.750846 17.6863632,60.8827029 17.0563342,55.1624478 C18.3794916,54.4431351 19.78372,53.8810497 21.2398801,53.4878555 C27.4441285,51.7713984 50.6322668,51.6343863 65,53.4878555 C58.1541977,42.4127109 61.4195916,17.0350257 57.8315,13.6477821 Z M47.2669903,30.7742944 C46.6062282,35.1853227 38.1584621,41.3013906 38.1584621,41.3013906 C38.1584621,41.3013906 28.90011,36.4717141 27.5977941,32.1976978 C27.3689014,31.6523639 27.2301076,31.0740834 27.1867386,30.4850466 C27.0380662,28.4294798 28.0320766,26.4570406 29.7798455,25.3394812 C30.5866336,24.8226776 31.5110479,24.513918 32.4689934,24.4412907 C34.2399894,24.3118904 35.9495192,25.8951413 37.0789613,27.0635501 C38.0355296,25.7429057 39.4915112,23.9313013 41.2625071,23.801901 C42.7758602,23.6843291 44.2742715,24.1679207 45.4273309,25.1460405 C46.5803904,26.1241603 47.2933981,27.516476 47.409131,29.0159725 C47.4538596,29.6064538 47.4019688,30.2002159 47.2554654,30.7742944 L47.2669903,30.7742944 Z" id="Shape"></path>
                <path d="M97.7580038,37.7056389 C90.5546748,37.7996583 76.9668402,30.4097327 72.0925232,29.1649157 C67.2182061,27.9200987 67.4036001,33.9711879 67.1370963,38.9429343 C66.8705924,43.9146807 69.8407586,53.7303071 71.8298817,57.9950276 C73.8190047,62.259748 72.0114133,65.6670114 66.7547212,64.9148562 C70.4741881,64.4861277 70.4432891,60.7516767 68.4966522,59.8866981 C66.5500153,59.0217195 59.447108,58.0063099 59.0415587,59.6121614 C58.6360093,61.218013 61.2778737,65.1442635 63.5103263,66.9607185 C65.742779,68.7771735 75.3330556,68.0889514 82.1462848,65.8550503 C89.0985594,63.5684982 95.3517443,60.7855237 104.548059,52.6923329 C113.744373,44.599142 115.555827,34.441285 116,31.7673729 C114.184684,35.0505307 105.297359,37.6078587 97.7580038,37.7056389 Z" id="Path"></path>
            </g>
        </g>
        <g id="DHFC" transform="translate(310.000000, 78.000000)" fill="#03A9F4" fill-rule="nonzero">
            <path d="M0,182 L0,3 L41.4942169,3 C65.2509683,3 83.7348798,9.41455278 96.9459513,22.2436583 C114.322123,39.0059246 123.006801,62.4573099 122.999988,92.5978142 C122.999988,122.271556 115.661636,145.180673 100.98494,161.325165 C88.4623711,175.053475 69.7875876,181.91763 44.9605894,181.91763 L0,182 Z M48,139 C65.3401953,138.156931 74.0068606,123.266147 74,94.3276466 C74,80.0571687 71.7964319,68.7922645 67.3893039,60.5329341 C62.9821759,52.2736037 57.033926,48.095959 49.5445542,48 L48.0308911,48 L48,139 Z" id="Shape"></path>
            <polygon id="Path" points="274 182 226.37441 182 226.37441 109.977854 203.62559 109.977854 203.62559 182 156 182 156 3 203.62559 3 203.62559 66.2909405 226.364277 66.2909405 226.364277 3 273.989867 3"></polygon>
            <polygon id="Path" points="358.080395 182 310 182 310 3 395 3 395 45.0601093 358.080395 45.0601093 358.080395 71.1404659 392.452762 71.1404659 392.452762 111.594363 358.080395 111.594363"></polygon>
            <path d="M525,126.933434 L522.217115,178.526467 C511.496333,182.842156 501.88802,185 493.392176,185 C473.408802,185 456.584841,177.673604 442.920293,163.020813 C427.640098,146.580094 420,123.330176 420,93.2710607 C420,65.1231789 427.188264,42.5171896 441.564792,25.4530928 C455.94132,8.38899607 475.110024,-0.0951002097 499.070905,0 C507.214392,0.0659084007 515.283891,1.55425118 522.915403,4.39869645 L522.915403,55.4060287 C515.747677,48.261166 508.377995,44.6887346 500.806357,44.6887346 C490.927628,44.6887346 483.208802,48.8913936 477.649878,57.2967114 C472.090954,65.7020292 469.311491,77.4228922 469.311491,92.4593002 C469.224718,98.9981805 469.914141,105.524244 471.365281,111.900451 C472.516606,117.024488 474.53439,121.914022 477.33154,126.358009 C479.726817,130.103907 483.006655,133.202316 486.881663,135.379854 C490.871987,137.495849 495.336308,138.556929 499.851345,138.462488 C508.203423,138.48989 516.586308,134.646871 525,126.933434 Z" id="Path"></path>
        </g>
    </g>
</svg>