<svg xmlns="http://www.w3.org/2000/svg" viewBox="0 0 1130 1130"><defs><style>.cls-1{fill:#03a9f4;}.cls-2{fill:#fff;}</style></defs><g id="Outer_Blue_Ring" data-name="Outer Blue Ring"><path class="cls-1" d="M600,35C288,35,35,288,35,600s253,565,565,565,565-253,565-565S912,35,600,35Zm0,1090C310.05,1125,75,890,75,600S310.05,75,600,75s525,235.05,525,525S890,1125,600,1125Z" transform="translate(-35 -35)"/></g><g id="Inner_Blue_Ring" data-name="Inner Blue Ring"><path class="cls-1" d="M600,90C318.33,90,90,318.33,90,600s228.33,510,510,510,510-228.33,510-510S881.67,90,600,90Zm0,877c-202.69,0-367-164.31-367-367S397.31,233,600,233,967,397.31,967,600,802.69,967,600,967Z" transform="translate(-35 -35)"/></g><g id="DHFC"><path class="cls-1" d="M342.5,687V513.15h40.58q34.85,0,54.23,18.69,25.49,24.42,25.48,68.33,0,43.23-21.53,66.75-18.37,20-54.79,20Zm47-42q25.26-1.23,25.25-43.45,0-20.82-6.42-32.87T391,556.49h-1.47Z" transform="translate(-35 -35)"/><path class="cls-1" d="M610.86,687h-47V617.05H541.41V687h-47V513.15h47v61.47h22.44V513.15h47Z" transform="translate(-35 -35)"/><path class="cls-1" d="M693.76,687h-47V513.15h83.09V554H693.76v25.33h33.6v39.29h-33.6Z" transform="translate(-35 -35)"/><path class="cls-1" d="M857.5,633.49l-2.71,50.21q-15.66,6.3-28.07,6.3-29.19,0-49.15-21.39-22.32-24-22.32-67.88,0-41.09,21-66t56-24.77a68.08,68.08,0,0,1,23.22,4.28v49.64Q845,553.45,833.94,553.45q-14.43,0-22.55,12.27t-8.12,34.22a80.4,80.4,0,0,0,2,18.92,44.87,44.87,0,0,0,5.81,14.07,26.37,26.37,0,0,0,9.3,8.78,25.82,25.82,0,0,0,12.63,3Q845.21,644.75,857.5,633.49Z" transform="translate(-35 -35)"/></g><g id="Dashiel_Hermann_Fan_Club" data-name="Dashiel Hermann Fan Club"><path class="cls-2" d="M205.46,476.75a32,32,0,0,0-8.23-8.74,30.72,30.72,0,0,0-11-5.08,30.37,30.37,0,0,0-12.19-.43,31.93,31.93,0,0,0-11.27,4.11,32.82,32.82,0,0,0-9,7.95,28.57,28.57,0,0,0-5.32,11.11l-5.63,23.5,61.09,14.65,5.64-23.5a28.69,28.69,0,0,0,.31-12.39A32.61,32.61,0,0,0,205.46,476.75Zm-10.29,24.32-.87,3.64-34.19-8.2.87-3.64a20.23,20.23,0,0,1,3-7,15.71,15.71,0,0,1,11.14-6.75,19.24,19.24,0,0,1,7.09.41,19.92,19.92,0,0,1,6.57,2.82,15.61,15.61,0,0,1,4.57,4.7,16.18,16.18,0,0,1,2.26,6.32A20.47,20.47,0,0,1,195.17,501.07Z" transform="translate(-35 -35)"/><path class="cls-2" d="M176.28,403.11,223,451.49l7.41-15.76-8.28-8L232,406.58l11.47,1.25,7.42-15.76-67-5.1Zm42.65,2.1-6.24,13.27L196.89,403Z" transform="translate(-35 -35)"/><path class="cls-2" d="M281.06,330.77a22.42,22.42,0,0,0-6.08-6.5q-5.76-4.25-11.55-3.91t-12.68,5.2c-1.15.81-2.29,1.65-3.41,2.51a22,22,0,0,1-3.28,2.14,8.69,8.69,0,0,1-3.06,1,3.89,3.89,0,0,1-2.81-.83,4.67,4.67,0,0,1-2-3.93,8.42,8.42,0,0,1,1.86-5.05,14.25,14.25,0,0,1,3.9-3.54,20.38,20.38,0,0,1,5.75-2.39l-6.41-12.79a42.44,42.44,0,0,0-8.83,5.6,39.12,39.12,0,0,0-6.83,7.08,25.78,25.78,0,0,0-4.15,8.17,19.16,19.16,0,0,0-.67,8,18.92,18.92,0,0,0,2.66,7.35,22.27,22.27,0,0,0,5.9,6.25,17.74,17.74,0,0,0,7.07,3.4,15,15,0,0,0,6.33-.09,20,20,0,0,0,5.8-2.46q2.78-1.73,5.46-3.69c1.54-1.07,2.89-2,4-2.67a13.24,13.24,0,0,1,3.11-1.48,5.38,5.38,0,0,1,2.53-.21A5.72,5.72,0,0,1,266,339a5.58,5.58,0,0,1,2.19,4c.21,1.77-.47,3.74-2.06,5.88a17.21,17.21,0,0,1-5.47,4.76,28.3,28.3,0,0,1-8.19,3l6.44,13.45a37.88,37.88,0,0,0,18.81-13.58,31.93,31.93,0,0,0,4.86-9.2,21.91,21.91,0,0,0,1.06-8.74A18.21,18.21,0,0,0,281.06,330.77Z" transform="translate(-35 -35)"/><polygon class="cls-2" points="286.43 233.5 303.87 252.67 315.95 241.67 273.66 195.21 261.58 206.21 277.9 224.14 260.46 240.01 244.14 222.08 232.07 233.07 274.36 279.53 286.44 268.54 268.99 249.38 286.43 233.5"/><rect class="cls-2" x="358.78" y="196.52" width="16.33" height="62.83" transform="translate(-99.99 199.05) rotate(-32.66)"/><polygon class="cls-2" points="416.04 184.34 410.31 171.75 392.64 179.79 388.15 169.93 404.84 162.34 399.11 149.75 382.43 157.34 378.08 147.79 395.75 139.75 390.02 127.16 357.48 141.96 383.5 199.15 416.04 184.34"/><polygon class="cls-2" points="475.61 151.54 456.71 156.68 443.87 109.39 428.11 113.68 444.58 174.31 479.24 164.89 475.61 151.54"/><polygon class="cls-2" points="594.08 118.44 570.51 117.53 571.45 93.3 555.13 92.67 552.7 155.45 569.02 156.08 570.02 130.18 593.59 131.1 592.58 156.99 608.9 157.62 611.34 94.84 595.02 94.21 594.08 118.44"/><polygon class="cls-2" points="677.75 157.47 658.84 153.06 661.3 142.51 679.15 146.68 682.3 133.21 664.45 129.04 666.83 118.82 685.74 123.23 688.88 109.76 654.07 101.63 639.79 162.82 674.6 170.94 677.75 157.47"/><path class="cls-2" d="M762.84,199.32l4.69,28.36,18.65,8.09-7.88-31.48q6.83,1.23,11.77-1.48t7.8-9.29a21.55,21.55,0,0,0,1.79-7.4,17.24,17.24,0,0,0-5.31-13.61,25.18,25.18,0,0,0-7.8-5.06l-23.32-10.1-25,57.64,15,6.5Zm10.37-23.93,2.83,1.22q4.44,1.92,6,4.79A7.7,7.7,0,0,1,777.48,192c-2.11.54-4.65.16-7.6-1.12l-2.83-1.22Z" transform="translate(-35 -35)"/><polygon class="cls-2" points="804.65 235.68 838.03 215.33 820.97 247.68 834.06 257.3 862.69 200.37 849.66 190.79 819.75 210.37 829.46 175.93 816.44 166.36 770.62 210.65 783.71 220.28 809.5 194.35 799.42 231.83 804.65 235.68"/><path class="cls-2" d="M948,285.47l-63.38,22.42,11.27,13.27,10.75-4.2,15.09,17.79-5.89,9.92L927.13,358l32.43-58.89Zm-19.6,37.94-9.49-11.18,20.69-7.94Z" transform="translate(-35 -35)"/><polygon class="cls-2" points="983.18 355.81 949.15 373.62 969.2 329.08 961.62 314.61 905.96 343.75 913.53 358.21 947.57 340.4 927.52 384.94 935.06 399.33 990.72 370.2 983.18 355.81"/><polygon class="cls-2" points="1018.37 457.76 981.14 467.19 1010.97 428.52 1006.97 412.69 946.06 428.1 950.07 443.94 987.3 434.51 957.47 473.18 961.46 488.93 1022.36 473.51 1018.37 457.76"/><polygon class="cls-2" points="802.96 893.57 817.61 913.41 803.2 924.05 811.42 935.18 825.83 924.53 832.06 932.98 816.25 944.66 824.46 955.79 853.42 934.4 816.09 883.87 802.96 893.57"/><path class="cls-2" d="M794,957.15l1.56,11.43-20.83,10.5L766.46,971l-15.56,7.84,49.63,45.34,15.93-8-6.92-66.87Zm-9.82,31.07,13.1-6.6,2.86,22Z" transform="translate(-35 -35)"/><polygon class="cls-2" points="680.47 955.19 690.11 992.38 651.27 962.76 635.54 966.84 651.31 1027.65 667.03 1023.58 657.4 986.39 696.23 1016.01 712.04 1011.91 696.28 951.09 680.47 955.19"/><path class="cls-2" d="M592.63,1014.57A32.82,32.82,0,0,0,570.19,1004a34.17,34.17,0,0,0-6.44.3,48.52,48.52,0,0,0-7.09,1.59l-1.7.5-1,19.31q6.59-6.35,14.41-5.94a16.77,16.77,0,0,1,11.76,5.61,16.86,16.86,0,0,1,3.3,5.68,18.13,18.13,0,0,1,.93,7,17.78,17.78,0,0,1-1.64,6.76,16.62,16.62,0,0,1-3.82,5.27,16.37,16.37,0,0,1-5.55,3.34,17.25,17.25,0,0,1-6.85,1q-8.32-.44-13.62-7.63l-1,19.47a44.39,44.39,0,0,0,7.49,2.85,34.71,34.71,0,0,0,7.32,1.17A33,33,0,0,0,598,1052.14a33.91,33.91,0,0,0,1.33-26.63A34.38,34.38,0,0,0,592.63,1014.57Z" transform="translate(-35 -35)"/><polygon class="cls-2" points="457.62 972.09 476.77 976.2 466.48 1024.1 482.45 1027.53 495.64 966.1 460.53 958.56 457.62 972.09"/><path class="cls-2" d="M450.07,975.91q-12.9-5.22-21.65-1.49t-14.26,17.33l-13.68,33.74,15.06,6.11,12.83-31.66q1-2.55,2.31-5.14a14.93,14.93,0,0,1,3.15-4.34,9.1,9.1,0,0,1,4.48-2.28,11.43,11.43,0,0,1,6.38,1,11.59,11.59,0,0,1,5.32,3.73,8.67,8.67,0,0,1,1.62,4.75,15.17,15.17,0,0,1-.8,5.29q-.88,2.74-1.92,5.29l-12.83,31.66,15.14,6.14,13.68-33.75q5.5-13.59,1.78-22.38T450.07,975.91Z" transform="translate(-35 -35)"/><path class="cls-2" d="M370.08,936a18.54,18.54,0,0,0-7.6-.77,16,16,0,0,0-6.77,2.46,18.91,18.91,0,0,0-5.56,5.72,20.74,20.74,0,0,0-2.35,4.84,12.59,12.59,0,0,0-.6,5,12.9,12.9,0,0,0,1.51,5,19.67,19.67,0,0,0,3.88,5,14.34,14.34,0,0,0-7.25,1.6,16.23,16.23,0,0,0-5.73,5.67Q335.35,977,336.84,983t8.77,10.67L366,1006.94l34.26-52.67-22-14.31A31.9,31.9,0,0,0,370.08,936Zm-10.95,51.52-2.52-1.63q-6.42-4.18-3.11-9.28t9.75-.92l2.51,1.64Zm13.27-20.39-3-1.95c-3.44-2.25-5.62-4.29-6.54-6.15a6.18,6.18,0,0,1,5.55-8.52c2.06.08,4.82,1.25,8.26,3.49l3,2Z" transform="translate(-35 -35)"/></g><g id="Pennant"><path class="cls-1" d="M647.53,778.73c-19.94-12.84-89.35-8.32-122.22-1.3l-.06-.33c16.42-7.66,6.94-36.63-12.08-34.07-13,1.75-25.11,27.73-7,34.37,6.06,44.66,25.12,184.53,26.7,188,1.88,4.18,16.4,5.23,17-.75s-6.84-61.81-8.48-76.84a49.93,49.93,0,0,1,10.89-4.4c16.15-4.51,76.51-4.87,113.91,0C648.37,854.31,656.87,787.63,647.53,778.73Zm-27.5,45c-1.72,11.59-23.71,27.66-23.71,27.66s-24.1-12.69-27.49-23.92a14.46,14.46,0,0,1-1.07-4.5,14.83,14.83,0,0,1,6.75-13.52,15,15,0,0,1,7-2.36c4.61-.34,9.06,3.82,12,6.89,2.49-3.47,6.28-8.23,10.89-8.57a14.88,14.88,0,0,1,16,13.7A14.44,14.44,0,0,1,620,823.73Z" transform="translate(-35 -35)"/><path class="cls-1" d="M749.81,840.65c-18.65.25-53.83-19.4-66.45-22.71s-12.14,12.78-12.83,26,7,39.32,12.15,50.66S683.15,915,669.54,913c9.63-1.14,9.55-11.07,4.51-13.37s-23.43-5-24.48-.73,5.79,14.71,11.57,19.54,30.61,3,48.25-2.94c18-6.08,34.19-13.48,58-35s28.5-48.53,29.65-55.64C792.34,833.59,769.33,840.39,749.81,840.65Z" transform="translate(-35 -35)"/></g><g id="Stars"><polygon class="cls-2" points="116.94 577.67 124.34 605 131.75 577.67 159.34 585 139.15 565 159.34 545 131.75 552.33 124.34 525 116.94 552.33 89.34 545 109.53 565 89.34 585 116.94 577.67"/><polygon class="cls-2" points="1043.34 545 1015.75 552.33 1008.34 525 1000.94 552.33 973.34 545 993.53 565 973.34 585 1000.94 577.67 1008.34 605 1015.75 577.67 1043.34 585 1023.15 565 1043.34 545"/><polygon class="cls-2" points="169.34 688 149.15 668 169.34 648 141.75 655.33 134.34 628 126.94 655.33 99.34 648 119.53 668 99.34 688 126.94 680.67 134.34 708 141.75 680.67 169.34 688"/><polygon class="cls-2" points="1005.75 655.33 998.34 628 990.94 655.33 963.34 648 983.53 668 963.34 688 990.94 680.67 998.34 708 1005.75 680.67 1033.34 688 1013.15 668 1033.34 648 1005.75 655.33"/><polygon class="cls-2" points="189.15 766 209.34 746 181.75 753.33 174.34 726 166.94 753.33 139.34 746 159.53 766 139.34 786 166.94 778.67 174.34 806 181.75 778.67 209.34 786 189.15 766"/><polygon class="cls-2" points="965.75 753.33 958.34 726 950.94 753.33 923.34 746 943.53 766 923.34 786 950.94 778.67 958.34 806 965.75 778.67 993.34 786 973.15 766 993.34 746 965.75 753.33"/><polygon class="cls-2" points="241.75 840.33 234.34 813 226.94 840.33 199.34 833 219.53 853 199.34 873 226.94 865.67 234.34 893 241.75 865.67 269.34 873 249.15 853 269.34 833 241.75 840.33"/><polygon class="cls-2" points="906.75 840.33 899.34 813 891.94 840.33 864.34 833 884.53 853 864.34 873 891.94 865.67 899.34 893 906.75 865.67 934.34 873 914.15 853 934.34 833 906.75 840.33"/></g></svg>