<?xml version="1.0" encoding="UTF-8"?>
<svg width="150px" height="34px" viewBox="0 0 150 34" version="1.1" xmlns="http://www.w3.org/2000/svg" xmlns:xlink="http://www.w3.org/1999/xlink">
    <title>Flaneur_Logo</title>
    <g id="Page-1" stroke="none" stroke-width="1" fill="none" fill-rule="evenodd">
        <g id="Flaneur_Logo" fill="#FFFFFF" fill-rule="nonzero">
            <polygon id="Path" points="51.0983456 5 55.9016544 5 60 11 56.1007966 11 53.4681373 8.47488584 50.8314951 11 47 11"></polygon>
            <path d="M58.8746628,15.2867805 C57.4851629,13.8419096 55.296327,13.0045855 52.2670679,13.0045855 C49.650883,12.9430066 47.0555036,13.5023339 44.6771114,14.6402884 L46.0666113,19.0527916 C47.7813513,18.3280823 49.6137436,17.9539057 51.4639967,17.9506394 C54.2392613,17.9506394 55.6623781,19.2825689 55.6623781,21.6815997 L55.6623781,22.0243184 C54.1280799,21.4551657 52.5097475,21.1717422 50.8813032,21.1869943 C46.2459016,21.1869943 43,23.2394119 43,27.6908604 L43,27.768751 C43,31.7995902 46.0292592,34 49.7233866,34 C52.4276821,34 54.287819,32.9718439 55.6362316,31.4140317 L55.6362316,33.618336 L61,33.618336 L61,21.7945411 C60.9887944,19.0527916 60.3313966,16.8095419 58.8746628,15.2867805 Z M55.7333472,26.4368216 C55.7333472,28.5281845 53.9852667,30.0120007 51.3930276,30.0120007 C49.6038597,30.0120007 48.3637684,29.1006805 48.3637684,27.5389737 L48.3637684,27.4649777 C48.3637684,25.6384428 49.8242374,24.649232 52.1960988,24.649232 C53.4148225,24.6443268 54.6206002,24.9098404 55.7333472,25.4281381 L55.7333472,26.4368216 Z" id="Shape"></path>
            <path d="M67,12.3858268 L72.5722326,12.3858268 L72.5722326,15.3070866 C73.8555347,13.5787402 75.5028143,12 78.3283302,12 C82.5422139,12 85,14.9251969 85,19.6535433 L85,33 L79.4277674,33 L79.4277674,21.5 C79.4277674,18.7440945 78.1782364,17.3070866 76.0506567,17.3070866 C73.9230769,17.3070866 72.5684803,18.7322835 72.5684803,21.5 L72.5684803,33 L67,33 L67,12.3858268 Z" id="Path"></path>
            <path d="M90,23.5731842 L90,23.5 C90,17.7415627 94.1416894,13 100.077851,13 C106.882055,13 110,18.230741 110,23.9506603 C110,24.4013206 109.964967,24.9290169 109.926041,25.4567131 L95.7376411,25.4567131 C96.3059556,28.0528247 98.1315687,29.4086574 100.720125,29.4086574 C102.666407,29.4086574 104.063838,28.8039252 105.663682,27.3363903 L108.972363,30.2367938 C107.068898,32.5478723 104.332425,34 100.642273,34 C94.5231608,34 90,29.7476156 90,23.5731842 Z M104.375243,21.882245 C104.032698,19.3207997 102.510705,17.5913426 100.093422,17.5913426 C97.6761386,17.5913426 96.1268976,19.2822817 95.6636824,21.882245 L104.375243,21.882245 Z" id="Shape"></path>
            <path d="M114,26.3464567 L114,13 L119.571071,13 L119.571071,24.5 C119.571071,27.2559055 120.81659,28.6929134 122.947478,28.6929134 C125.078366,28.6929134 126.428929,27.2677165 126.428929,24.5 L126.428929,13 L132,13 L132,33.6141732 L126.425177,33.6141732 L126.425177,30.6929134 C125.142143,32.4212598 123.491455,34 120.670279,34 C116.453522,34 114,31.0787402 114,26.3464567 Z" id="Path"></path>
            <path d="M138,12.3945578 L143.648177,12.3945578 L143.648177,16.5463419 C144.789223,13.7010908 146.656735,11.8554162 150,12.0088945 L150,18.1204781 L149.703328,18.1204781 C145.949287,18.1204781 143.648177,20.4816823 143.648177,25.3890517 L143.648177,33 L138,33 L138,12.3945578 Z" id="Path"></path>
            <path d="M22.1766606,13.9200515 L28,11.1152727 C28,11.1152727 26.159809,6.43932262 24.4179188,3.8442099 C23.3484061,1.95721482 22.5502036,1.43898347 22.5502036,1.43898347 C19.3495296,-0.815916311 16.8998736,0.109779387 15.2995366,0.687350207 C13.6991996,1.26492103 12.3308524,2.68906825 11.2534756,5.00726346 L10.6361466,6.34042351 L8.1786266,5.18528187 L5.90591209,10.0946338 L8.3634321,11.2458195 L0.97514394,27.1844006 L0.97514394,27.1844006 L0,29.2889737 L1.87557927,30.1751098 L2.77994664,28.2248192 C3.56635304,29.0160121 4.37635164,30.0564308 4.45892431,31.1324532 C4.62013762,33.2409823 8.99255723,34.1468981 9.44474091,33.9807476 C9.83794411,33.8422889 6.90858026,31.5161817 6.92430838,29.9337959 L14.2929364,14.0308185 L16.7111361,15.1424446 L18.9563264,10.2607843 L16.459486,9.12542253 L16.8526892,8.30258191 C17.4936104,7.20282377 18.5120067,7.30567885 18.8855498,7.75665881 C18.8855498,7.75665881 18.8344334,7.01689344 22.1766606,13.9200515 Z" id="Path"></path>
            <path d="M34.5611238,28.2581625 L27.6008796,13 L22,15.657555 L28.9751007,30.9764617 L28.9751007,30.9764617 L29.8999143,33 L31.660403,32.1609719 L30.8061574,30.2854973 C31.8349662,30.1867882 33.0940499,30.2323462 33.9185826,30.8397874 C35.5305068,32.0205011 38.8360657,29.3439636 38.9957724,28.9073652 C39.1369087,28.5201215 35.70507,29.2452544 34.5611238,28.2581625 Z" id="Path"></path>
            <path d="M53.037037,0 C51.7695473,0 55,5 55,5 L51,5 C51,5 54.3004115,0 53.037037,0 Z" id="Path"></path>
        </g>
    </g>
</svg>