<?xml version="1.0" encoding="UTF-8"?>
<svg width="960px" height="300px" viewBox="0 0 960 300" version="1.1" xmlns="http://www.w3.org/2000/svg" xmlns:xlink="http://www.w3.org/1999/xlink">
    <title>Desktop</title>
    <g id="Desktop" stroke="none" stroke-width="1" fill="none" fill-rule="evenodd">
        <g id="dhfc_seal_3" fill-rule="nonzero">
            <g id="Outer_Blue_Ring" fill="#03A9F4">
                <path d="M150,0 C67.1681416,0 0,67.1681416 0,150 C0,232.831858 67.1681416,300 150,300 C232.831858,300 300,232.831858 300,150 C300,67.1681416 232.831858,0 150,0 Z M150,289.380531 C73.0221239,289.380531 10.619469,226.99115 10.619469,150 C10.619469,73.0088496 73.0221239,10.619469 150,10.619469 C226.977876,10.619469 289.380531,73.0221239 289.380531,150 C289.380531,226.977876 226.99115,289.380531 150,289.380531 Z" id="Shape"></path>
            </g>
            <g id="Inner_Blue_Ring" transform="translate(14.601770, 14.601770)" fill="#03A9F4">
                <path d="M135.39823,0 C60.6185841,0 0,60.6185841 0,135.39823 C0,210.177876 60.6185841,270.79646 135.39823,270.79646 C210.177876,270.79646 270.79646,210.177876 270.79646,135.39823 C270.79646,60.6185841 210.177876,0 135.39823,0 Z M135.39823,232.831858 C81.5867257,232.831858 37.9646018,189.209735 37.9646018,135.39823 C37.9646018,81.5867257 81.5867257,37.9646018 135.39823,37.9646018 C189.209735,37.9646018 232.831858,81.5867257 232.831858,135.39823 C232.831858,189.209735 189.209735,232.831858 135.39823,232.831858 Z" id="Shape"></path>
            </g>
            <g id="DHFC" transform="translate(81.504425, 125.840708)" fill="#03A9F4">
                <path d="M0.132743363,47.2566372 L0.132743363,1.10176991 L10.9061947,1.10176991 C17.0743363,1.10176991 21.8734513,2.75575221 25.3035398,6.06371681 C29.8150442,10.3858407 32.0699115,16.4327434 32.0681426,24.2044248 C32.0681426,31.8557522 30.1628319,37.7628319 26.3522124,41.9256637 C23.100885,45.4654867 18.2522124,47.2353982 11.8061947,47.2353982 L0.132743363,47.2566372 Z M12.6106195,36.1061947 C17.0814159,35.8884956 19.3159292,32.0433628 19.3141603,24.5707965 C19.3141603,20.8858407 18.7460177,17.9769912 17.6097345,15.8442478 C16.4734513,13.7115044 14.939823,12.6327434 13.0088496,12.6079646 L12.6185841,12.6079646 L12.6106195,36.1061947 Z" id="Shape"></path>
                <polygon id="Path" points="71.3787611 47.2566372 58.900885 47.2566372 58.900885 28.6858407 52.940708 28.6858407 52.940708 47.2566372 40.4628319 47.2566372 40.4628319 1.10176991 52.940708 1.10176991 52.940708 17.4212389 58.8982301 17.4212389 58.8982301 1.10176991 71.3761062 1.10176991"></polygon>
                <polygon id="Path" points="93.3876106 47.2566372 80.9097345 47.2566372 80.9097345 1.10176991 102.969027 1.10176991 102.969027 11.9469027 93.3876106 11.9469027 93.3876106 18.6716814 102.307965 18.6716814 102.307965 29.1026549 93.3876106 29.1026549"></polygon>
                <path d="M136.858407,33.0504425 L136.138938,46.380531 C133.367257,47.4955752 130.883186,48.0530973 128.686726,48.0530973 C123.520354,48.0530973 119.170796,46.160177 115.638053,42.3743363 C111.687611,38.1265487 109.712389,32.119469 109.712389,24.3530973 C109.712389,17.080531 111.570796,11.239823 115.287611,6.83097345 C119.004425,2.42212389 123.960177,0.230088496 130.154867,0.25465953 C132.260232,0.27168828 134.346467,0.656231305 136.319469,1.39115044 L136.319469,14.5699115 C134.466372,12.7238938 132.561062,11.800885 130.60354,11.800885 C128.049558,11.800885 126.053982,12.8867257 124.616814,15.0584071 C123.179646,17.2300885 122.461062,20.2584071 122.461062,24.1433628 C122.438628,25.8328129 122.616867,27.5189514 122.992035,29.1663717 C123.289691,30.4902687 123.811356,31.7535773 124.534513,32.9017699 C125.153773,33.8695974 126.001721,34.6701333 127.00354,35.2327434 C128.035172,35.779453 129.189349,36.0536043 130.356637,36.0292035 C132.515929,36.0362832 134.683186,35.0433628 136.858407,33.0504425 Z" id="Path"></path>
            </g>
            <g id="Dashiel_Hermann_Fan_Club" transform="translate(28.407080, 24.424779)" fill="#FFFFFF">
                <path d="M16.8477876,92.8539823 C16.2723728,91.9496168 15.5310106,91.1623134 14.6628319,90.5336283 C13.7885685,89.8946542 12.7958109,89.4361807 11.7424779,89.1849558 C10.682538,88.9284322 9.58157524,88.889596 8.50619469,89.0707965 C7.44886922,89.2422138 6.4336098,89.6124637 5.51415929,90.1619469 C4.59467348,90.712552 3.78465735,91.4280663 3.12477876,92.2725664 C2.44510961,93.1413557 1.96311157,94.1479343 1.71238938,95.2221239 L0.217699115,101.461062 L16.4362832,105.350442 L17.9336283,99.1115044 C18.2003945,98.0341366 18.2284835,96.9114844 18.0159292,95.8221239 C17.8137439,94.7689329 17.4176418,93.7624735 16.8477876,92.8539823 L16.8477876,92.8539823 Z M14.1159292,99.3106195 L13.8849558,100.276991 L4.8079646,98.1 L5.03893805,97.1336283 C5.18437661,96.4693226 5.45465169,95.8386807 5.83539823,95.2752212 C6.51549752,94.2780743 7.59422038,93.6244496 8.79292035,93.4831858 C9.42167248,93.4023527 10.0599779,93.4392646 10.6752212,93.5920354 C11.2970308,93.7343566 11.887963,93.9879987 12.419469,94.340708 C12.9076555,94.6660708 13.3211982,95.0913773 13.6327434,95.5884956 C13.9478252,96.0997004 14.1522224,96.671289 14.2327434,97.2663717 C14.3236865,97.9490338 14.284045,98.6427607 14.1159292,99.3106195 L14.1159292,99.3106195 Z" id="Shape"></path>
                <path d="M9.10088496,73.3035398 L21.5044248,86.1477876 L23.4716814,81.9637168 L21.2734513,79.839823 L23.8938053,74.2247788 L26.9389381,74.5566372 L28.9088496,70.3725664 L11.1212389,69.0185841 L9.10088496,73.3035398 Z M20.4238938,73.8610619 L18.7672566,77.3840708 L14.5725664,73.2743363 L20.4238938,73.8610619 Z" id="Shape"></path>
                <path d="M36.9185841,54.0982301 C36.5012615,53.4209169 35.952395,52.8341352 35.3044248,52.3725664 C34.2849558,51.620354 33.2628319,51.2743363 32.2380531,51.3345133 C31.2132743,51.3946903 30.0911504,51.8548673 28.8716814,52.7150442 C28.5663717,52.9300885 28.2637168,53.1530973 27.9663717,53.3814159 C27.6935734,53.5963074 27.4021535,53.7864411 27.0955752,53.9495575 C26.8436771,54.0878775 26.5681538,54.1779178 26.2831858,54.2150442 C26.0152981,54.2416321 25.7476165,54.162566 25.5371681,53.9946903 C25.1967836,53.7576237 24.9975045,53.3660402 25.0061947,52.9513274 C25.0197,52.4624389 25.1931658,51.9914701 25.5,51.6106195 C25.7837358,51.2357293 26.1348652,50.9170118 26.5353982,50.6707965 C27.0087412,50.3823446 27.5235991,50.1683428 28.0619469,50.0362832 L26.360177,46.640708 C25.5204668,47.0377611 24.7330765,47.5371252 24.0159292,48.1274336 C23.3348199,48.6751866 22.7255793,49.3067274 22.2026549,50.0070796 C21.708816,50.6584921 21.3356657,51.3931037 21.100885,52.1761062 C20.8922761,52.8635664 20.8316535,53.5874178 20.9230088,54.3 C21.0200157,54.9925075 21.2605463,55.6571315 21.6292035,56.2513274 C22.03863,56.900888 22.5706606,57.4644797 23.1955752,57.9106195 C23.7460359,58.3478094 24.3873798,58.6562351 25.0725664,58.8132743 C25.6280642,58.9249558 26.2009992,58.9168098 26.7530973,58.7893805 C27.297652,58.6543986 27.817373,58.4339652 28.2929204,58.1362832 C28.7849558,57.8300885 29.2681416,57.5035398 29.7424779,57.1566372 C30.1513274,56.8725664 30.5097345,56.6256637 30.8044248,56.4477876 C31.0613639,56.2814227 31.3389331,56.1493319 31.6300885,56.0548673 C31.8463291,55.9829677 32.0766344,55.9638515 32.3017699,55.999115 C32.5268036,56.0457775 32.7383112,56.1429076 32.920354,56.2831858 C33.2565622,56.5382033 33.4680586,56.9244981 33.5017699,57.3451327 C33.5575221,57.8150442 33.3769912,58.3380531 32.9548673,58.9061947 C32.5660373,59.4257875 32.0709798,59.8565871 31.5026549,60.1699115 C30.8233887,60.5461639 30.0899004,60.8148409 29.3283186,60.9663717 L31.0380531,64.5371681 C33.0387588,63.8872701 34.7852993,62.626344 36.0318584,60.9318584 C36.5925982,60.1937215 37.0284725,59.3686098 37.3221239,58.4893805 C37.5719607,57.7429371 37.6676985,56.9535518 37.6035398,56.1690265 C37.5359451,55.4355966 37.3016647,54.727307 36.9185841,54.0982301 L36.9185841,54.0982301 Z" id="Path"></path>
                <polygon id="Path" points="47.6362832 37.5663717 52.2663717 42.6557522 55.4734513 39.7353982 44.2460177 27.400885 41.0389381 30.3212389 45.3716814 35.0814159 40.7415929 39.2946903 36.4088496 34.5345133 33.2044248 37.4522124 44.4318584 49.7867257 47.6389381 46.8690265 43.0061947 41.7823009"></polygon>
                <polygon id="Rectangle" transform="translate(59.719177, 26.793669) rotate(-32.660000) translate(-59.719177, -26.793669) " points="57.5514781 18.4534035 61.8868763 18.4534035 61.8868763 35.1339344 57.5514781 35.1339344"></polygon>
                <polygon id="Path" points="82.0460177 24.5150442 80.5247788 21.1725664 75.8336283 23.3070796 74.6415929 20.6893805 79.0725664 18.6743363 77.5513274 15.3318584 73.1230088 17.3469027 71.9681416 14.8115044 76.659292 12.6769912 75.1380531 9.33451327 66.499115 13.2637168 73.4070796 28.4469027"></polygon>
                <polygon id="Path" points="97.8610619 15.8070796 92.8433628 17.1716814 89.4345133 4.61681416 85.2504425 5.75575221 89.6230088 21.8522124 98.8247788 19.3513274"></polygon>
                <polygon id="Path" points="129.313274 7.01946903 123.055752 6.77787611 123.30531 0.345132743 118.972566 0.177876106 118.327434 16.8451327 122.660177 17.0123894 122.925664 10.1362832 129.183186 10.380531 128.915044 17.2539823 133.247788 17.4212389 133.895575 0.753982301 129.562832 0.586725664"></polygon>
                <polygon id="Path" points="151.526549 17.3814159 146.506195 16.2106195 147.159292 13.4097345 151.89823 14.5168142 152.734513 10.940708 147.995575 9.83362832 148.627434 7.12035398 153.647788 8.29115044 154.481416 4.71504425 145.239823 2.55663717 141.448673 18.8017699 150.690265 20.9575221"></polygon>
                <path d="M164.824779,19.2 L166.069912,26.7292035 L171.021239,28.8769912 L168.929204,20.519469 C170.138053,20.7371681 171.179646,20.6061947 172.053982,20.1265487 C172.928319,19.6469027 173.618584,18.8247788 174.124779,17.660177 C174.398526,17.0387032 174.559444,16.3734563 174.6,15.6955752 C174.688853,14.3417387 174.172489,13.0182524 173.190265,12.0823009 C172.589372,11.5098532 171.887138,11.0543013 171.119469,10.7389381 L164.928319,8.05752212 L158.29115,23.360177 L162.273451,25.0858407 L164.824779,19.2 Z M167.577876,12.8469027 L168.329204,13.1707965 C169.115044,13.5106195 169.646018,13.9345133 169.922124,14.4424779 C170.172098,14.9724271 170.182648,15.584165 169.951097,16.1224189 C169.719546,16.6606728 169.268158,17.0736899 168.711504,17.2566372 C168.151327,17.4 167.476991,17.299115 166.693805,16.959292 L165.942478,16.6353982 L167.577876,12.8469027 Z" id="Shape"></path>
                <polygon id="Path" points="185.216814 38.1451327 194.078761 32.7424779 189.549558 41.3309735 193.024779 43.8849558 200.625664 28.7707965 197.166372 26.2274336 189.225664 31.4256637 191.80354 22.2823009 188.346903 19.7415929 176.182301 31.5 179.657522 34.0566372 186.504425 27.1725664 183.828319 37.1230088"></polygon>
                <path d="M213.982301,42.0716814 L197.155752,48.0238938 L200.147788,51.5469027 L203.00177,50.4318584 L207.007965,55.1548673 L205.444248,57.7884956 L208.441593,61.3274336 L217.051327,45.6929204 L213.982301,42.0716814 Z M208.778761,52.1442478 L206.259292,49.1761062 L211.752212,47.0681416 L208.778761,52.1442478 Z" id="Shape"></path>
                <polygon id="Path" points="232.614159 70.0380531 223.579646 74.7663717 228.902655 62.9415929 226.890265 59.1 212.113274 66.8362832 214.123009 70.6752212 223.160177 65.9469027 217.837168 77.7716814 219.838938 81.5920354 234.615929 73.8584071"></polygon>
                <polygon id="Path" points="241.956637 97.1044248 232.072566 99.6079646 239.992035 89.3415929 238.930088 85.1389381 222.759292 89.2300885 223.823894 93.4353982 233.707965 90.9318584 225.788496 101.19823 226.847788 105.379646 243.015929 101.285841"></polygon>
                <polygon id="Path" points="184.768142 212.806195 188.657522 218.073451 184.831858 220.89823 187.014159 223.853097 190.839823 221.025664 192.493805 223.269027 188.29646 226.369912 190.476106 229.324779 198.164602 223.646018 188.253982 210.230973"></polygon>
                <path d="M173.097345,220.393805 L173.511504,223.428319 L167.981416,226.215929 L165.785841,224.070796 L161.654867,226.152212 L174.830973,238.189381 L179.060177,236.065487 L177.223009,218.312389 L173.097345,220.393805 Z M170.490265,228.642478 L173.968142,226.890265 L174.727434,232.730973 L170.490265,228.642478 Z" id="Shape"></path>
                <polygon id="Path" points="152.248673 229.165487 154.807965 239.038938 144.49646 231.175221 140.320354 232.258407 144.50708 248.402655 148.680531 247.322124 146.123894 237.448673 156.432743 245.312389 160.630088 244.223894 156.446018 228.076991"></polygon>
                <path d="M119.636283,235.638053 C118.093991,233.959344 115.955231,232.951915 113.678761,232.831858 C113.107613,232.804464 112.535154,232.831131 111.969027,232.911504 C111.331924,233.004968 110.702727,233.146072 110.086726,233.333628 L109.635398,233.466372 L109.369912,238.59292 C110.536283,237.469027 111.811504,236.943363 113.195575,237.015929 C114.394491,237.071277 115.520279,237.608324 116.317699,238.50531 C116.70578,238.945661 117.003465,239.458039 117.193805,240.013274 C117.397116,240.610573 117.481008,241.242017 117.440708,241.871681 C117.415155,242.492744 117.267191,243.102644 117.00531,243.666372 C116.762776,244.195028 116.418114,244.670516 115.99115,245.065487 C115.563965,245.456254 115.063009,245.75773 114.517699,245.952212 C113.935672,246.162685 113.317022,246.252999 112.699115,246.217699 C111.226549,246.139823 110.021239,245.464602 109.083186,244.192035 L108.817699,249.361062 C109.456362,249.672713 110.121906,249.925957 110.806195,250.117699 C111.441037,250.290313 112.092539,250.394447 112.749558,250.428319 C116.231945,250.620652 119.496735,248.729139 121.061947,245.612389 C122.14008,243.40283 122.267654,240.848466 121.415044,238.542478 C121.009602,237.47131 120.406179,236.486018 119.636283,235.638053 Z" id="Path"></path>
                <polygon id="Path" points="93.0849558 233.652212 98.1690265 234.743363 95.4371681 247.460177 99.6769912 248.370796 103.178761 232.061947 93.8575221 230.060177"></polygon>
                <path d="M81.7884956,225.374336 C79.5053097,224.450442 77.5893805,224.318584 76.040708,224.978761 C74.4920354,225.638938 73.2300885,227.172566 72.2548673,229.579646 L68.6230088,238.537168 L72.6212389,240.159292 L76.0274336,231.753982 C76.2044248,231.302655 76.4088496,230.847788 76.640708,230.389381 C76.8476423,229.957984 77.1309729,229.567617 77.4769912,229.237168 C77.8087535,228.927727 78.2209416,228.717953 78.6663717,228.631858 C79.2447552,228.5557 79.8328325,228.647875 80.360177,228.897345 C80.9157599,229.086019 81.4058153,229.429611 81.7725664,229.887611 C82.0371162,230.256372 82.1867491,230.69511 82.2026549,231.148673 C82.2156214,231.6257 82.1437068,232.101236 81.9902655,232.553097 C81.8345133,233.038053 81.6646018,233.506195 81.480531,233.957522 L78.0743363,242.362832 L82.0938053,243.99292 L85.7256637,235.032743 C86.699115,232.627434 86.8566372,230.646903 86.1982301,229.09115 C85.539823,227.535398 84.0699115,226.29646 81.7884956,225.374336 Z" id="Path"></path>
                <path d="M60.5522124,214.778761 C59.9011278,214.5713 59.2139782,214.501681 58.5345133,214.574336 C57.8935456,214.652594 57.2788553,214.875953 56.7371681,215.227434 C56.1427494,215.622909 55.639519,216.140621 55.2610619,216.746018 C54.9981869,217.14543 54.788458,217.577382 54.6371681,218.030973 C54.4952163,218.458208 54.4410353,218.909717 54.4778761,219.358407 C54.5195928,219.823591 54.6560169,220.275327 54.8787611,220.685841 C55.1482224,221.181019 55.496087,221.629298 55.9088496,222.013274 C55.2410917,221.983442 54.5772486,222.129945 53.9840708,222.438053 C53.3584676,222.803906 52.8352498,223.321645 52.4628319,223.943363 C51.7088496,225.090265 51.4637168,226.19469 51.7274336,227.256637 C51.9911504,228.318584 52.7672566,229.262832 54.0557522,230.089381 L59.4690265,233.612389 L68.5646018,219.629204 L62.7238938,215.830088 C62.0538852,215.377797 61.3225716,215.023763 60.5522124,214.778761 L60.5522124,214.778761 Z M57.6451327,228.456637 L56.9761062,228.023894 C55.839823,227.284071 55.5646018,226.462832 56.1504425,225.560177 C56.7362832,224.657522 57.599115,224.576106 58.7389381,225.315929 L59.4053097,225.751327 L57.6451327,228.456637 Z M61.1681416,223.043363 L60.3716814,222.525664 C59.4584071,221.928319 58.879646,221.386726 58.6353982,220.89292 C58.4311551,220.394246 58.4848086,219.82707 58.7789386,219.375541 C59.0730686,218.924012 59.5701713,218.645702 60.1088496,218.630973 C60.6557522,218.652212 61.3884956,218.962832 62.3017699,219.557522 L63.0982301,220.088496 L61.1681416,223.043363 Z" id="Shape"></path>
            </g>
            <g id="Pennant" transform="translate(122.389381, 187.699115)" fill="#03A9F4">
                <path d="M40.2292035,9.75132743 C34.9353982,6.34247788 16.5079646,7.54247788 7.78141593,9.40619469 L7.76548673,9.31858407 C12.1247788,7.28495575 9.6079646,-0.40619469 4.55840708,0.273451327 C1.10707965,0.738053097 -2.1079646,7.63539823 2.7,9.39823009 C4.30884956,21.2548673 9.36902655,58.3884956 9.78849558,59.3097345 C10.2876106,60.419469 14.1424779,60.6982301 14.3017699,59.1106195 C14.4610619,57.5230088 12.4858407,42.700885 12.0504425,38.7106195 C12.9648455,38.2088501 13.9352748,37.8167575 14.9415929,37.5424779 C19.2292035,36.3451327 35.2539823,36.2495575 45.1831858,37.5424779 C40.4522124,29.8168142 42.7088496,12.1141593 40.2292035,9.75132743 Z M32.9283186,21.6982301 C32.4716814,24.7752212 26.6336283,29.0415929 26.6336283,29.0415929 C26.6336283,29.0415929 20.2353982,25.6725664 19.3353982,22.6911504 C19.1772159,22.3107431 19.0812988,21.9073533 19.0513274,21.4964602 C18.9485834,20.062563 19.6355207,18.6866531 20.8433628,17.9070796 C21.4009152,17.5465741 22.0397562,17.3311934 22.7017699,17.280531 C23.9256637,17.1902655 25.1070796,18.2946903 25.8876106,19.1097345 C26.5486726,18.1884956 27.5548673,16.9247788 28.7787611,16.8345133 C29.8246039,16.7524989 30.8601208,17.0898369 31.6569731,17.7721417 C32.4538255,18.4544465 32.9465684,19.4256811 33.0265487,20.4716814 C33.0574596,20.8835821 33.021599,21.2977714 32.920354,21.6982301 L32.9283186,21.6982301 Z" id="Shape"></path>
                <path d="M67.3831858,26.1902655 C62.4318584,26.2566372 53.0920354,21.039823 49.7415929,20.1610619 C46.3911504,19.2823009 46.5185841,23.5539823 46.3353982,27.0637168 C46.1522124,30.5734513 48.1938053,37.5026549 49.5610619,40.5132743 C50.9283186,43.5238938 49.6858407,45.9292035 46.0725664,45.3982301 C48.6292035,45.0955752 48.6079646,42.459292 47.2699115,41.8486726 C45.9318584,41.2380531 41.0495575,40.5212389 40.7707965,41.6548673 C40.4920354,42.7884956 42.3079646,45.560177 43.8424779,46.8424779 C45.3769912,48.1247788 51.9690265,47.6389381 56.6522124,46.0619469 C61.4309735,44.4477876 65.7292035,42.4831858 72.0504425,36.7699115 C78.3716814,31.0566372 79.6168142,23.8858407 79.9221239,21.9982301 C78.6743363,24.3159292 72.5654867,26.1212389 67.3831858,26.1902655 Z" id="Path"></path>
            </g>
            <g id="Stars" transform="translate(23.628319, 139.380531)" fill="#FFFFFF">
                <polygon id="Path" points="7.41769912 13.9831858 9.38230088 21.2389381 11.3495575 13.9831858 18.6743363 15.9292035 13.3141593 10.619469 18.6743363 5.30973451 11.3495575 7.25575221 9.38230088 0 7.41769912 7.25575221 0.0902654867 5.30973451 5.45044248 10.619469 0.0902654867 15.9292035"></polygon>
                <polygon id="Path" points="253.364602 5.30973451 246.039823 7.25575221 244.072566 0 242.107965 7.25575221 234.780531 5.30973451 240.140708 10.619469 234.780531 15.9292035 242.107965 13.9831858 244.072566 21.2389381 246.039823 13.9831858 253.364602 15.9292035 248.004425 10.619469"></polygon>
                <polygon id="Path" points="21.3292035 43.2743363 15.9690265 37.9646018 21.3292035 32.6548673 14.0044248 34.600885 12.0371681 27.3451327 10.0725664 34.600885 2.74513274 32.6548673 8.10530973 37.9646018 2.74513274 43.2743363 10.0725664 41.3283186 12.0371681 48.5840708 14.0044248 41.3283186"></polygon>
                <polygon id="Path" points="243.384956 34.600885 241.417699 27.3451327 239.453097 34.600885 232.125664 32.6548673 237.485841 37.9646018 232.125664 43.2743363 239.453097 41.3283186 241.417699 48.5840708 243.384956 41.3283186 250.709735 43.2743363 245.349558 37.9646018 250.709735 32.6548673"></polygon>
                <polygon id="Path" points="26.5884956 63.9823009 31.9486726 58.6725664 24.6238938 60.6185841 22.6566372 53.3628319 20.6920354 60.6185841 13.3646018 58.6725664 18.7247788 63.9823009 13.3646018 69.2920354 20.6920354 67.3460177 22.6566372 74.6017699 24.6238938 67.3460177 31.9486726 69.2920354"></polygon>
                <polygon id="Path" points="232.765487 60.6185841 230.79823 53.3628319 228.833628 60.6185841 221.506195 58.6725664 226.866372 63.9823009 221.506195 69.2920354 228.833628 67.3460177 230.79823 74.6017699 232.765487 67.3460177 240.090265 69.2920354 234.730088 63.9823009 240.090265 58.6725664"></polygon>
                <polygon id="Path" points="40.5530973 83.7159292 38.5858407 76.460177 36.6212389 83.7159292 29.2938053 81.7699115 34.6539823 87.079646 29.2938053 92.3893805 36.6212389 90.4433628 38.5858407 97.699115 40.5530973 90.4433628 47.8778761 92.3893805 42.5176991 87.079646 47.8778761 81.7699115"></polygon>
                <polygon id="Path" points="217.10177 83.7159292 215.134513 76.460177 213.169912 83.7159292 205.842478 81.7699115 211.202655 87.079646 205.842478 92.3893805 213.169912 90.4433628 215.134513 97.699115 217.10177 90.4433628 224.426549 92.3893805 219.066372 87.079646 224.426549 81.7699115"></polygon>
            </g>
        </g>
        <path d="M420.675676,145 L420.675676,111.466844 L430,111.466844 L430,102 L400,102 L400,111.466844 L409.324324,111.466844 L409.324324,145 L420.675676,145 Z M443.371534,144 L443.371534,128.484337 C443.371534,126.559036 443.839495,125.077309 444.775416,124.039157 C445.711337,123.001004 447.057917,122.481928 448.815157,122.481928 C450.113986,122.481928 451.221811,122.878313 452.138632,123.671084 C452.673444,124.161847 453.055453,124.860241 453.284658,125.766265 C453.513863,126.672289 453.628466,127.861446 453.628466,129.333735 L453.628466,129.333735 L453.628466,144 L464,144 L464,125.539759 C464,122.104418 463.054529,119.376908 461.163586,117.357229 C459.272643,115.33755 456.47443,114.327711 452.768946,114.327711 C450.820702,114.327711 449.120764,114.620281 447.669131,115.205422 C446.217498,115.790562 444.784966,116.93253 443.371534,118.631325 L443.371534,118.631325 L443.371534,97 L433,97 L433,144 L443.371534,144 Z M486.567376,146 C494.586288,146 499.598109,142.592861 501.602837,135.778584 L501.602837,135.778584 L491.673759,135.778584 C490.539007,137.637024 488.855792,138.566243 486.624113,138.566243 C482.463357,138.566243 480.382979,136.30127 480.382979,131.771325 L480.382979,131.771325 L502,131.771325 L502,130.667877 C502,128.073805 501.640662,125.741077 500.921986,123.669691 C500.20331,121.598306 499.163121,119.84634 497.801418,118.413793 C496.439716,116.981246 494.775414,115.887477 492.808511,115.132486 C490.841608,114.377495 488.628842,114 486.170213,114 C483.673759,114 481.432624,114.377495 479.446809,115.132486 C477.460993,115.887477 475.768322,116.961887 474.368794,118.355717 C472.969267,119.749546 471.891253,121.443436 471.134752,123.437387 C470.378251,125.431337 470,127.667272 470,130.145191 C470,132.545675 470.397163,134.713854 471.191489,136.649728 C471.985816,138.585602 473.111111,140.250454 474.567376,141.644283 C476.023641,143.038113 477.77305,144.112523 479.815603,144.867514 C481.858156,145.622505 484.108747,146 486.567376,146 Z M493,126 L481,126 C481.270531,124.412698 481.917874,123.18254 482.942029,122.309524 C483.966184,121.436508 485.289855,121 486.913043,121 C488.458937,121 489.772947,121.456349 490.855072,122.369048 C491.937198,123.281746 492.652174,124.492063 493,126 L493,126 Z M544.23298,145 C547.143722,145 549.858548,144.410698 552.377458,143.232095 C554.896369,142.053492 557.098084,140.475685 558.982602,138.498674 C560.867121,136.521662 562.34115,134.23099 563.40469,131.626658 C564.46823,129.022325 565,126.313439 565,123.5 C565,120.648541 564.458901,117.920645 563.376702,115.316313 C562.294503,112.711981 560.811145,110.430813 558.926626,108.472812 C557.042108,106.51481 554.840393,104.946508 552.321483,103.767905 C549.802572,102.589302 547.106404,102 544.23298,102 L544.23298,102 L528,102 L528,145 L544.23298,145 Z M541.596154,135 L539,135 L539,111 L541.596154,111 C543.519231,111 545.25,111.303318 546.788462,111.909953 C548.326923,112.516588 549.625,113.350711 550.682692,114.412322 C551.740385,115.473934 552.557692,116.744076 553.134615,118.222749 C553.711538,119.701422 554,121.293839 554,123 C554,124.744076 553.721154,126.345972 553.163462,127.805687 C552.605769,129.265403 551.798077,130.526066 550.740385,131.587678 C549.682692,132.649289 548.384615,133.483412 546.846154,134.090047 C545.307692,134.696682 543.557692,135 541.596154,135 L541.596154,135 Z M585.292642,145 C588.934783,145 591.822742,143.615902 593.956522,140.847706 L593.956522,140.847706 L593.956522,144.089908 L604,144.089908 L604,114.910092 L593.956522,114.910092 L593.956522,117.811009 C591.638796,115.270336 588.714047,114 585.182274,114 C583.085284,114 581.172241,114.407645 579.443144,115.222936 C577.714047,116.038226 576.22408,117.147401 574.973244,118.550459 C573.722408,119.953517 572.747492,121.593578 572.048495,123.470642 C571.349498,125.347706 571,127.329052 571,129.414679 C571,131.651988 571.358696,133.718654 572.076087,135.614679 C572.793478,137.510703 573.795987,139.160245 575.083612,140.563303 C576.371237,141.966361 577.879599,143.056575 579.608696,143.833945 C581.337793,144.611315 583.232441,145 585.292642,145 Z M588.5,136 C587.574074,136 586.712963,135.832618 585.916667,135.497854 C585.12037,135.16309 584.435185,134.69814 583.861111,134.103004 C583.287037,133.507868 582.833333,132.810443 582.5,132.01073 C582.166667,131.211016 582,130.346209 582,129.416309 C582,128.523605 582.166667,127.695994 582.5,126.933476 C582.833333,126.170959 583.287037,125.492132 583.861111,124.896996 C584.435185,124.30186 585.12037,123.83691 585.916667,123.502146 C586.712963,123.167382 587.574074,123 588.5,123 C589.388889,123 590.231481,123.167382 591.027778,123.502146 C591.824074,123.83691 592.509259,124.30186 593.083333,124.896996 C593.657407,125.492132 594.12037,126.189557 594.472222,126.98927 C594.824074,127.788984 595,128.635193 595,129.527897 C595,130.420601 594.824074,131.257511 594.472222,132.038627 C594.12037,132.819742 593.657407,133.507868 593.083333,134.103004 C592.509259,134.69814 591.824074,135.16309 591.027778,135.497854 C590.231481,135.832618 589.388889,136 588.5,136 Z M621.414254,146 C623.418708,146 625.256125,145.738657 626.926503,145.215971 C628.596882,144.693285 630.025984,143.957653 631.213808,143.009074 C632.401633,142.060496 633.329621,140.889292 633.997773,139.495463 C634.665924,138.101633 635,136.533575 635,134.791289 C635,132.46824 634.313289,130.561404 632.939866,129.07078 C631.566444,127.580157 629.487751,126.544465 626.703786,125.963702 C625.701559,125.731397 624.894209,125.53781 624.281737,125.38294 C623.669265,125.22807 623.205271,125.053842 622.889755,124.860254 C622.574239,124.666667 622.370082,124.4634 622.277283,124.250454 C622.184484,124.037508 622.138085,123.756806 622.138085,123.408348 C622.138085,122.750151 622.425761,122.227465 623.001114,121.84029 C623.576466,121.453116 624.328137,121.259528 625.256125,121.259528 C627.037862,121.259528 628.856719,121.762855 630.712695,122.76951 L630.712695,122.76951 L634.109131,115.916515 C631.139569,114.638838 628.077209,114 624.922049,114 C622.991834,114 621.237936,114.251664 619.660356,114.754991 C618.082777,115.258318 616.737194,115.974592 615.623608,116.903811 C614.510022,117.833031 613.656273,118.965517 613.062361,120.30127 C612.468448,121.637024 612.171492,123.137326 612.171492,124.802178 C612.171492,127.086509 612.793244,128.877193 614.036748,130.174229 C615.280252,131.471264 617.461024,132.448881 620.579065,133.107078 C621.507053,133.300665 622.258723,133.484574 622.834076,133.658802 C623.409428,133.833031 623.845583,134.026618 624.142539,134.239564 C624.439495,134.452511 624.634373,134.684815 624.727171,134.936479 C624.81997,135.188143 624.86637,135.507562 624.86637,135.894737 C624.86637,136.552934 624.569414,137.094979 623.975501,137.520871 C623.381589,137.946763 622.620638,138.15971 621.69265,138.15971 C619.168523,138.15971 616.495917,137.153055 613.674833,135.139746 L613.674833,135.139746 L610,142.573503 C613.749072,144.857834 617.553823,146 621.414254,146 Z M650.371534,144 L650.371534,128.484337 C650.371534,126.559036 650.839495,125.077309 651.775416,124.039157 C652.711337,123.001004 654.057917,122.481928 655.815157,122.481928 C657.113986,122.481928 658.221811,122.878313 659.138632,123.671084 C659.673444,124.161847 660.055453,124.860241 660.284658,125.766265 C660.513863,126.672289 660.628466,127.861446 660.628466,129.333735 L660.628466,129.333735 L660.628466,144 L671,144 L671,125.539759 C671,122.104418 670.054529,119.376908 668.163586,117.357229 C666.272643,115.33755 663.47443,114.327711 659.768946,114.327711 C657.820702,114.327711 656.120764,114.620281 654.669131,115.205422 C653.217498,115.790562 651.784966,116.93253 650.371534,118.631325 L650.371534,118.631325 L650.371534,97 L640,97 L640,144 L650.371534,144 Z M683.5,110 C684.254902,110 684.964869,109.856209 685.629902,109.568627 C686.294935,109.281046 686.879085,108.885621 687.382353,108.382353 C687.885621,107.879085 688.281046,107.294935 688.568627,106.629902 C688.856209,105.964869 689,105.254902 689,104.5 C689,103.745098 688.856209,103.035131 688.568627,102.370098 C688.281046,101.705065 687.885621,101.120915 687.382353,100.617647 C686.879085,100.114379 686.294935,99.7189542 685.629902,99.4313725 C684.964869,99.1437908 684.254902,99 683.5,99 C682.745098,99 682.035131,99.1437908 681.370098,99.4313725 C680.705065,99.7189542 680.120915,100.114379 679.617647,100.617647 C679.114379,101.120915 678.718954,101.705065 678.431373,102.370098 C678.143791,103.035131 678,103.745098 678,104.5 C678,105.254902 678.143791,105.964869 678.431373,106.629902 C678.718954,107.294935 679.114379,107.879085 679.617647,108.382353 C680.120915,108.885621 680.705065,109.281046 681.370098,109.568627 C682.035131,109.856209 682.745098,110 683.5,110 Z M689,144 L689,115 L679,115 L679,144 L689,144 Z M710.567376,146 C718.586288,146 723.598109,142.592861 725.602837,135.778584 L725.602837,135.778584 L715.673759,135.778584 C714.539007,137.637024 712.855792,138.566243 710.624113,138.566243 C706.463357,138.566243 704.382979,136.30127 704.382979,131.771325 L704.382979,131.771325 L726,131.771325 L726,130.667877 C726,128.073805 725.640662,125.741077 724.921986,123.669691 C724.20331,121.598306 723.163121,119.84634 721.801418,118.413793 C720.439716,116.981246 718.775414,115.887477 716.808511,115.132486 C714.841608,114.377495 712.628842,114 710.170213,114 C707.673759,114 705.432624,114.377495 703.446809,115.132486 C701.460993,115.887477 699.768322,116.961887 698.368794,118.355717 C696.969267,119.749546 695.891253,121.443436 695.134752,123.437387 C694.378251,125.431337 694,127.667272 694,130.145191 C694,132.545675 694.397163,134.713854 695.191489,136.649728 C695.985816,138.585602 697.111111,140.250454 698.567376,141.644283 C700.023641,143.038113 701.77305,144.112523 703.815603,144.867514 C705.858156,145.622505 708.108747,146 710.567376,146 Z M717,126 L705,126 C705.270531,124.412698 705.917874,123.18254 706.942029,122.309524 C707.966184,121.436508 709.289855,121 710.913043,121 C712.458937,121 713.772947,121.456349 714.855072,122.369048 C715.937198,123.281746 716.652174,124.492063 717,126 L717,126 Z M742,144 L742,97 L732,97 L732,144 L742,144 Z M416.034074,201 L416.034074,183.263926 L431.965926,183.263926 L431.965926,201 L443,201 L443,158 L431.965926,158 L431.965926,174.595491 L416.034074,174.595491 L416.034074,158 L405,158 L405,201 L416.034074,201 Z M466.567376,202 C474.586288,202 479.598109,198.592861 481.602837,191.778584 L481.602837,191.778584 L471.673759,191.778584 C470.539007,193.637024 468.855792,194.566243 466.624113,194.566243 C462.463357,194.566243 460.382979,192.30127 460.382979,187.771325 L460.382979,187.771325 L482,187.771325 L482,186.667877 C482,184.073805 481.640662,181.741077 480.921986,179.669691 C480.20331,177.598306 479.163121,175.84634 477.801418,174.413793 C476.439716,172.981246 474.775414,171.887477 472.808511,171.132486 C470.841608,170.377495 468.628842,170 466.170213,170 C463.673759,170 461.432624,170.377495 459.446809,171.132486 C457.460993,171.887477 455.768322,172.961887 454.368794,174.355717 C452.969267,175.749546 451.891253,177.443436 451.134752,179.437387 C450.378251,181.431337 450,183.667272 450,186.145191 C450,188.545675 450.397163,190.713854 451.191489,192.649728 C451.985816,194.585602 453.111111,196.250454 454.567376,197.644283 C456.023641,199.038113 457.77305,200.112523 459.815603,200.867514 C461.858156,201.622505 464.108747,202 466.567376,202 Z M472,183 L460,183 C460.270531,181.412698 460.917874,180.18254 461.942029,179.309524 C462.966184,178.436508 464.289855,178 465.913043,178 C467.458937,178 468.772947,178.456349 469.855072,179.369048 C470.937198,180.281746 471.652174,181.492063 472,183 L472,183 Z M496.872727,201 L496.872727,188.40458 C496.872727,185.656489 497.445455,183.566794 498.590909,182.135496 C499.736364,180.704198 501.454545,179.98855 503.745455,179.98855 C505.272727,179.98855 506.690909,180.332061 508,181.019084 L508,181.019084 L508,171.114504 C507.6,171.038168 507.245455,171 506.936364,171 L506.936364,171 L506.090909,171 C504.054545,171 502.272727,171.467557 500.745455,172.402672 C499.218182,173.337786 497.927273,174.683206 496.872727,176.438931 L496.872727,176.438931 L496.872727,171.629771 L487,171.629771 L487,201 L496.872727,201 Z M524.217742,201 L524.217742,186.45977 C524.217742,184.888889 524.340054,183.614943 524.584677,182.637931 C524.829301,181.66092 525.168011,180.894636 525.600806,180.33908 C526.033602,179.783525 526.532258,179.409962 527.096774,179.218391 C527.66129,179.02682 528.263441,178.931034 528.903226,178.931034 C529.655914,178.931034 530.314516,179.036398 530.879032,179.247126 C531.443548,179.457854 531.90457,179.850575 532.262097,180.425287 C532.619624,181 532.892473,181.775862 533.080645,182.752874 C533.268817,183.729885 533.362903,184.965517 533.362903,186.45977 L533.362903,186.45977 L533.362903,201 L543.580645,201 L543.580645,186.45977 C543.580645,181.59387 545.217742,179.16092 548.491935,179.16092 C549.094086,179.16092 549.658602,179.256705 550.185484,179.448276 C550.712366,179.639847 551.173387,180.003831 551.568548,180.54023 C551.96371,181.076628 552.264785,181.823755 552.471774,182.781609 C552.678763,183.739464 552.782258,184.965517 552.782258,186.45977 L552.782258,186.45977 L552.782258,201 L563,201 L563,181.862069 C563,179.908046 562.745968,178.241379 562.237903,176.862069 C561.729839,175.482759 561.043011,174.362069 560.177419,173.5 C559.311828,172.637931 558.276882,172.005747 557.072581,171.603448 C555.86828,171.201149 554.58871,171 553.233871,171 C548.981183,171 545.706989,172.858238 543.41129,176.574713 C541.153226,172.896552 537.879032,171.057471 533.58871,171.057471 C530.126344,171.057471 527.002688,172.417625 524.217742,175.137931 L524.217742,175.137931 L524.217742,171.517241 L514,171.517241 L514,201 L524.217742,201 Z M583.292642,202 C586.934783,202 589.822742,200.615902 591.956522,197.847706 L591.956522,197.847706 L591.956522,201.089908 L602,201.089908 L602,171.910092 L591.956522,171.910092 L591.956522,174.811009 C589.638796,172.270336 586.714047,171 583.182274,171 C581.085284,171 579.172241,171.407645 577.443144,172.222936 C575.714047,173.038226 574.22408,174.147401 572.973244,175.550459 C571.722408,176.953517 570.747492,178.593578 570.048495,180.470642 C569.349498,182.347706 569,184.329052 569,186.414679 C569,188.651988 569.358696,190.718654 570.076087,192.614679 C570.793478,194.510703 571.795987,196.160245 573.083612,197.563303 C574.371237,198.966361 575.879599,200.056575 577.608696,200.833945 C579.337793,201.611315 581.232441,202 583.292642,202 Z M585.5,193 C584.574074,193 583.712963,192.832618 582.916667,192.497854 C582.12037,192.16309 581.435185,191.69814 580.861111,191.103004 C580.287037,190.507868 579.833333,189.810443 579.5,189.01073 C579.166667,188.211016 579,187.346209 579,186.416309 C579,185.523605 579.166667,184.695994 579.5,183.933476 C579.833333,183.170959 580.287037,182.492132 580.861111,181.896996 C581.435185,181.30186 582.12037,180.83691 582.916667,180.502146 C583.712963,180.167382 584.574074,180 585.5,180 C586.388889,180 587.231481,180.167382 588.027778,180.502146 C588.824074,180.83691 589.509259,181.30186 590.083333,181.896996 C590.657407,182.492132 591.12037,183.189557 591.472222,183.98927 C591.824074,184.788984 592,185.635193 592,186.527897 C592,187.420601 591.824074,188.257511 591.472222,189.038627 C591.12037,189.819742 590.657407,190.507868 590.083333,191.103004 C589.509259,191.69814 588.824074,192.16309 588.027778,192.497854 C587.231481,192.832618 586.388889,193 585.5,193 Z M620.371534,201 L620.371534,185.312977 C620.371534,183.366412 620.839495,181.868321 621.775416,180.818702 C622.711337,179.769084 624.057917,179.244275 625.815157,179.244275 C626.464572,179.244275 627.075786,179.339695 627.648799,179.530534 C628.221811,179.721374 628.737523,180.045802 629.195933,180.503817 C629.730746,181.038168 630.103204,181.753817 630.313309,182.650763 C630.523413,183.54771 630.628466,184.721374 630.628466,186.171756 L630.628466,186.171756 L630.628466,201 L641,201 L641,182.335878 C641,180.770992 640.847197,179.377863 640.54159,178.156489 C640.235983,176.935115 639.66297,175.828244 638.822551,174.835878 C637.791128,173.614504 636.540049,172.669847 635.069316,172.001908 C633.598583,171.333969 631.831793,171 629.768946,171 C627.820702,171 626.120764,171.295802 624.669131,171.887405 C623.217498,172.479008 621.784966,173.633588 620.371534,175.351145 L620.371534,175.351145 L620.371534,171.629771 L610,171.629771 L610,201 L620.371534,201 Z M657.371534,201 L657.371534,185.312977 C657.371534,183.366412 657.839495,181.868321 658.775416,180.818702 C659.711337,179.769084 661.057917,179.244275 662.815157,179.244275 C663.464572,179.244275 664.075786,179.339695 664.648799,179.530534 C665.221811,179.721374 665.737523,180.045802 666.195933,180.503817 C666.730746,181.038168 667.103204,181.753817 667.313309,182.650763 C667.523413,183.54771 667.628466,184.721374 667.628466,186.171756 L667.628466,186.171756 L667.628466,201 L678,201 L678,182.335878 C678,180.770992 677.847197,179.377863 677.54159,178.156489 C677.235983,176.935115 676.66297,175.828244 675.822551,174.835878 C674.791128,173.614504 673.540049,172.669847 672.069316,172.001908 C670.598583,171.333969 668.831793,171 666.768946,171 C664.820702,171 663.120764,171.295802 661.669131,171.887405 C660.217498,172.479008 658.784966,173.633588 657.371534,175.351145 L657.371534,175.351145 L657.371534,171.629771 L647,171.629771 L647,201 L657.371534,201 Z M716.888889,201 L716.888889,184.119363 L728.833333,184.119363 L728.833333,174.65252 L716.888889,174.65252 L716.888889,167.466844 L730,167.466844 L730,158 L706,158 L706,201 L716.888889,201 Z M748.292642,202 C751.934783,202 754.822742,200.615902 756.956522,197.847706 L756.956522,197.847706 L756.956522,201.089908 L767,201.089908 L767,171.910092 L756.956522,171.910092 L756.956522,174.811009 C754.638796,172.270336 751.714047,171 748.182274,171 C746.085284,171 744.172241,171.407645 742.443144,172.222936 C740.714047,173.038226 739.22408,174.147401 737.973244,175.550459 C736.722408,176.953517 735.747492,178.593578 735.048495,180.470642 C734.349498,182.347706 734,184.329052 734,186.414679 C734,188.651988 734.358696,190.718654 735.076087,192.614679 C735.793478,194.510703 736.795987,196.160245 738.083612,197.563303 C739.371237,198.966361 740.879599,200.056575 742.608696,200.833945 C744.337793,201.611315 746.232441,202 748.292642,202 Z M750.5,193 C749.574074,193 748.712963,192.832618 747.916667,192.497854 C747.12037,192.16309 746.435185,191.69814 745.861111,191.103004 C745.287037,190.507868 744.833333,189.810443 744.5,189.01073 C744.166667,188.211016 744,187.346209 744,186.416309 C744,185.523605 744.166667,184.695994 744.5,183.933476 C744.833333,183.170959 745.287037,182.492132 745.861111,181.896996 C746.435185,181.30186 747.12037,180.83691 747.916667,180.502146 C748.712963,180.167382 749.574074,180 750.5,180 C751.388889,180 752.231481,180.167382 753.027778,180.502146 C753.824074,180.83691 754.509259,181.30186 755.083333,181.896996 C755.657407,182.492132 756.12037,183.189557 756.472222,183.98927 C756.824074,184.788984 757,185.635193 757,186.527897 C757,187.420601 756.824074,188.257511 756.472222,189.038627 C756.12037,189.819742 755.657407,190.507868 755.083333,191.103004 C754.509259,191.69814 753.824074,192.16309 753.027778,192.497854 C752.231481,192.832618 751.388889,193 750.5,193 Z M785.371534,201 L785.371534,185.312977 C785.371534,183.366412 785.839495,181.868321 786.775416,180.818702 C787.711337,179.769084 789.057917,179.244275 790.815157,179.244275 C791.464572,179.244275 792.075786,179.339695 792.648799,179.530534 C793.221811,179.721374 793.737523,180.045802 794.195933,180.503817 C794.730746,181.038168 795.103204,181.753817 795.313309,182.650763 C795.523413,183.54771 795.628466,184.721374 795.628466,186.171756 L795.628466,186.171756 L795.628466,201 L806,201 L806,182.335878 C806,180.770992 805.847197,179.377863 805.54159,178.156489 C805.235983,176.935115 804.66297,175.828244 803.822551,174.835878 C802.791128,173.614504 801.540049,172.669847 800.069316,172.001908 C798.598583,171.333969 796.831793,171 794.768946,171 C792.820702,171 791.120764,171.295802 789.669131,171.887405 C788.217498,172.479008 786.784966,173.633588 785.371534,175.351145 L785.371534,175.351145 L785.371534,171.629771 L775,171.629771 L775,201 L785.371534,201 Z M852.961872,202 C854.36684,202 855.790295,201.855528 857.232236,201.566583 C858.674177,201.277638 860.227036,200.824958 861.890815,200.208543 L861.890815,200.208543 L863,199.80402 L863,186.396985 C860.227036,189.479062 857.102831,191.020101 853.627383,191.020101 C852.037551,191.020101 850.558637,190.711893 849.190641,190.095477 C847.822646,189.479062 846.630272,188.631491 845.613518,187.552764 C844.596765,186.474037 843.801849,185.20268 843.228769,183.738693 C842.65569,182.274707 842.369151,180.675879 842.369151,178.942211 C842.369151,177.247069 842.65569,175.667504 843.228769,174.203518 C843.801849,172.739531 844.587522,171.477806 845.585789,170.418342 C846.584055,169.358878 847.77643,168.520938 849.162912,167.904523 C850.549393,167.288107 852.056037,166.979899 853.682842,166.979899 C857.380127,166.979899 860.485846,168.578727 863,171.776382 L863,171.776382 L863,158.253769 C861.225303,157.48325 859.533795,156.914992 857.925477,156.548995 C856.317158,156.182998 854.681109,156 853.017331,156 C850.096476,156 847.305026,156.568258 844.642981,157.704774 C841.980936,158.84129 839.642403,160.420854 837.627383,162.443467 C835.612363,164.46608 834.004044,166.873953 832.802426,169.667085 C831.600809,172.460218 831,175.532663 831,178.884422 C831,182.236181 831.610052,185.327889 832.830156,188.159548 C834.05026,190.991206 835.667822,193.437605 837.682842,195.498744 C839.697863,197.559883 842.027152,199.15871 844.670711,200.295226 C847.314269,201.431742 850.07799,202 852.961872,202 Z M880,201 L880,154 L870,154 L870,201 L880,201 Z M901.5,202 C906.647741,202 910.51801,201.022556 913.110806,199.067669 C915.703602,197.112782 917,194.180451 917,190.270677 L917,190.270677 L917,172 L906.723443,172 L906.723443,188.296992 C906.723443,191.868421 904.982295,193.654135 901.5,193.654135 C898.017705,193.654135 896.276557,191.868421 896.276557,188.296992 L896.276557,188.296992 L896.276557,172 L886,172 L886,190.270677 C886,194.180451 887.296398,197.112782 889.889194,199.067669 C892.48199,201.022556 896.352259,202 901.5,202 Z M943.707358,202 C945.730769,202 947.616221,201.593381 949.363712,200.780142 C951.111204,199.966903 952.628763,198.86052 953.916388,197.460993 C955.204013,196.061466 956.206522,194.416076 956.923913,192.524823 C957.641304,190.63357 958,188.609929 958,186.453901 C958,184.335697 957.650502,182.340426 956.951505,180.468085 C956.252508,178.595745 955.286789,176.969267 954.054348,175.588652 C952.821906,174.208038 951.33194,173.111111 949.584448,172.297872 C947.836957,171.484634 945.914716,171.078014 943.817726,171.078014 C940.285953,171.078014 937.342809,172.345154 934.988294,174.879433 L934.988294,174.879433 L934.988294,154 L925,154 L925,201.092199 L934.988294,201.092199 L934.988294,197.858156 C937.122074,200.619385 940.028428,202 943.707358,202 Z M941.527897,193 C940.635193,193 939.788984,192.823319 938.98927,192.469957 C938.189557,192.116595 937.492132,191.651645 936.896996,191.075107 C936.30186,190.498569 935.83691,189.819742 935.502146,189.038627 C935.167382,188.257511 935,187.420601 935,186.527897 C935,185.635193 935.176681,184.788984 935.530043,183.98927 C935.883405,183.189557 936.348355,182.492132 936.924893,181.896996 C937.501431,181.30186 938.180258,180.83691 938.961373,180.502146 C939.742489,180.167382 940.579399,180 941.472103,180 C942.402003,180 943.257511,180.176681 944.038627,180.530043 C944.819742,180.883405 945.507868,181.357654 946.103004,181.95279 C946.69814,182.547926 947.16309,183.245351 947.497854,184.045064 C947.832618,184.844778 948,185.690987 948,186.583691 C948,187.439199 947.823319,188.257511 947.469957,189.038627 C947.116595,189.819742 946.651645,190.507868 946.075107,191.103004 C945.498569,191.69814 944.819742,192.16309 944.038627,192.497854 C943.257511,192.832618 942.420601,193 941.527897,193 Z" id="TheDashielHermannFanClub" fill="#03A9F4" fill-rule="nonzero"></path>
        <line x1="350" y1="0.5" x2="350" y2="300.5" id="Line" stroke="#03A9F4" stroke-width="3" stroke-linecap="square" stroke-dasharray="1,8"></line>
    </g>
</svg>