<?xml version="1.0" encoding="UTF-8"?>
<svg width="280px" height="60px" viewBox="0 0 280 60" version="1.1" xmlns="http://www.w3.org/2000/svg" xmlns:xlink="http://www.w3.org/1999/xlink">
    <title>join_btn</title>
    <g id="Page-1" stroke="none" stroke-width="1" fill="none" fill-rule="evenodd">
        <g id="join_btn" transform="translate(-20.000000, -308.000000)">
            <g transform="translate(20.000000, 308.000000)">
                <rect id="Rectangle" fill="#03A9F4" x="50" y="10" width="180" height="50"></rect>
                <polygon id="Rectangle" fill="#03A9F4" points="230 0 280 0 260 26.734375 280 50 230 50"></polygon>
                <polygon id="Rectangle" fill="#03A9F4" transform="translate(25.000000, 25.000000) scale(-1, 1) translate(-25.000000, -25.000000) " points="0 0 50 0 30 26.734375 50 50 0 50"></polygon>
                <path d="M80.653,42.294 C81.0263333,42.294 81.3833333,42.245 81.724,42.147 C82.0646667,42.049 82.375,41.9136667 82.655,41.741 C82.935,41.5683333 83.18,41.3583333 83.39,41.111 C83.6,40.8636667 83.7656667,40.5906667 83.887,40.292 C83.9616667,40.1053333 84.0153333,39.8813333 84.048,39.62 C84.0806667,39.3586667 84.097,39.074 84.097,38.766 L84.097,38.766 L84.097,31.444 L81.353,31.444 L81.353,38.724 C81.353,39.536 81.0963333,39.942 80.583,39.942 C80.3496667,39.942 80.1536667,39.8486667 79.995,39.662 C79.8363333,39.4753333 79.7336667,39.2233333 79.687,38.906 L79.687,38.906 L77.895,40.74 C78.6043333,41.776 79.5236667,42.294 80.653,42.294 Z M92.685,42.294 C93.5343333,42.294 94.3183333,42.1516667 95.037,41.867 C95.7556667,41.5823333 96.374,41.188 96.892,40.684 C97.41,40.18 97.8136667,39.5896667 98.103,38.913 C98.3923333,38.2363333 98.537,37.506 98.537,36.722 C98.537,35.938 98.3923333,35.2076667 98.103,34.531 C97.8136667,33.8543333 97.41,33.264 96.892,32.76 C96.374,32.256 95.7556667,31.8616667 95.037,31.577 C94.3183333,31.2923333 93.5343333,31.15 92.685,31.15 C91.8263333,31.15 91.04,31.2923333 90.326,31.577 C89.612,31.8616667 88.9983333,32.256 88.485,32.76 C87.9716667,33.264 87.5703333,33.8543333 87.281,34.531 C86.9916667,35.2076667 86.847,35.938 86.847,36.722 C86.847,37.506 86.9916667,38.2363333 87.281,38.913 C87.5703333,39.5896667 87.9716667,40.18 88.485,40.684 C88.9983333,41.188 89.612,41.5823333 90.326,41.867 C91.04,42.1516667 91.8263333,42.294 92.685,42.294 Z M92.685,39.634 C92.2836667,39.634 91.9033333,39.5616667 91.544,39.417 C91.1846667,39.2723333 90.8696667,39.0693333 90.599,38.808 C90.3283333,38.5466667 90.1136667,38.2386667 89.955,37.884 C89.7963333,37.5293333 89.717,37.142 89.717,36.722 C89.717,36.302 89.7963333,35.9146667 89.955,35.56 C90.1136667,35.2053333 90.3283333,34.8973333 90.599,34.636 C90.8696667,34.3746667 91.1846667,34.1716667 91.544,34.027 C91.9033333,33.8823333 92.2836667,33.81 92.685,33.81 C93.0863333,33.81 93.4666667,33.8823333 93.826,34.027 C94.1853333,34.1716667 94.5026667,34.3746667 94.778,34.636 C95.0533333,34.8973333 95.2703333,35.2053333 95.429,35.56 C95.5876667,35.9146667 95.667,36.302 95.667,36.722 C95.667,37.142 95.5876667,37.5293333 95.429,37.884 C95.2703333,38.2386667 95.0533333,38.5466667 94.778,38.808 C94.5026667,39.0693333 94.1853333,39.2723333 93.826,39.417 C93.4666667,39.5616667 93.0863333,39.634 92.685,39.634 Z M104.017,42 L104.017,31.444 L101.273,31.444 L101.273,42 L104.017,42 Z M109.973,42 L109.973,35.546 L115.041,42 L117.771,42 L117.771,31.444 L115.041,31.444 L115.041,37.898 L109.973,31.444 L107.229,31.444 L107.229,42 L109.973,42 Z M130.747,42 L130.747,33.768 L133.001,33.768 L133.001,31.444 L125.749,31.444 L125.749,33.768 L128.003,33.768 L128.003,42 L130.747,42 Z M137.963,42 L137.963,37.646 L141.925,37.646 L141.925,42 L144.669,42 L144.669,31.444 L141.925,31.444 L141.925,35.518 L137.963,35.518 L137.963,31.444 L135.219,31.444 L135.219,42 L137.963,42 Z M153.887,42 L153.887,39.676 L150.625,39.676 L150.625,37.856 L153.705,37.856 L153.705,35.532 L150.625,35.532 L150.625,33.768 L153.887,33.768 L153.887,31.444 L147.881,31.444 L147.881,42 L153.887,42 Z M167.689,42.294 C168.043667,42.294 168.403,42.259 168.767,42.189 C169.131,42.119 169.523,42.0093333 169.943,41.86 L169.943,41.86 L170.223,41.762 L170.223,38.514 C169.523,39.2606667 168.734333,39.634 167.857,39.634 C167.455667,39.634 167.082333,39.5593333 166.737,39.41 C166.391667,39.2606667 166.090667,39.0553333 165.834,38.794 C165.577333,38.5326667 165.376667,38.2246667 165.232,37.87 C165.087333,37.5153333 165.015,37.128 165.015,36.708 C165.015,36.2973333 165.087333,35.9146667 165.232,35.56 C165.376667,35.2053333 165.575,34.8996667 165.827,34.643 C166.079,34.3863333 166.38,34.1833333 166.73,34.034 C167.08,33.8846667 167.460333,33.81 167.871,33.81 C168.804333,33.81 169.588333,34.1973333 170.223,34.972 L170.223,34.972 L170.223,31.696 C169.775,31.5093333 169.348,31.3716667 168.942,31.283 C168.536,31.1943333 168.123,31.15 167.703,31.15 C166.965667,31.15 166.261,31.2876667 165.589,31.563 C164.917,31.8383333 164.326667,32.221 163.818,32.711 C163.309333,33.201 162.903333,33.7843333 162.6,34.461 C162.296667,35.1376667 162.145,35.882 162.145,36.694 C162.145,37.506 162.299,38.255 162.607,38.941 C162.915,39.627 163.323333,40.2196667 163.832,40.719 C164.340667,41.2183333 164.928667,41.6056667 165.596,41.881 C166.263333,42.1563333 166.961,42.294 167.689,42.294 Z M178.993,42 L178.993,39.676 L175.703,39.676 L175.703,31.444 L172.959,31.444 L172.959,42 L178.993,42 Z M185.817,42.294 C187.375667,42.294 188.530667,41.916 189.282,41.16 C190.033333,40.404 190.409,39.2046667 190.409,37.562 L190.409,37.562 L190.409,31.444 L187.679,31.444 L187.679,37.184 C187.679,37.492 187.667333,37.807 187.644,38.129 C187.620667,38.451 187.548333,38.7426667 187.427,39.004 C187.305667,39.2653333 187.121333,39.4776667 186.874,39.641 C186.626667,39.8043333 186.274333,39.886 185.817,39.886 C185.359667,39.886 185.005,39.8043333 184.753,39.641 C184.501,39.4776667 184.316667,39.2653333 184.2,39.004 C184.083333,38.7426667 184.013333,38.451 183.99,38.129 C183.966667,37.807 183.955,37.492 183.955,37.184 L183.955,37.184 L183.955,31.444 L181.211,31.444 L181.211,37.562 C181.211,39.2046667 181.589,40.404 182.345,41.16 C183.101,41.916 184.258333,42.294 185.817,42.294 Z M198.031,42 C198.591,42 199.095,41.9346667 199.543,41.804 C199.991,41.6733333 200.371333,41.4773333 200.684,41.216 C200.996667,40.9546667 201.239333,40.6326667 201.412,40.25 C201.584667,39.8673333 201.671,39.4286667 201.671,38.934 C201.671,38.6166667 201.633667,38.318 201.559,38.038 C201.484333,37.758 201.360667,37.506 201.188,37.282 C201.015333,37.058 200.791333,36.869 200.516,36.715 C200.240667,36.561 199.907,36.4466667 199.515,36.372 C199.907,36.1293333 200.198667,35.833 200.39,35.483 C200.581333,35.133 200.677,34.692 200.677,34.16 C200.677,33.2826667 200.425,32.6106667 199.921,32.144 C199.417,31.6773333 198.679667,31.444 197.709,31.444 L197.709,31.444 L193.621,31.444 L193.621,42 L198.031,42 Z M196.869,35.588 L196.365,35.588 L196.365,33.544 L196.869,33.544 C197.727667,33.544 198.157,33.8846667 198.157,34.566 C198.157,35.2473333 197.727667,35.588 196.869,35.588 L196.869,35.588 Z M196.967,39.872 L196.365,39.872 L196.365,37.632 L196.967,37.632 C197.657667,37.632 198.152333,37.7206667 198.451,37.898 C198.749667,38.0753333 198.899,38.36 198.899,38.752 C198.899,39.144 198.749667,39.4286667 198.451,39.606 C198.152333,39.7833333 197.657667,39.872 196.967,39.872 L196.967,39.872 Z" id="JOINTHECLUB" fill="#FFFFFF" fill-rule="nonzero"></path>
            </g>
        </g>
    </g>
</svg>